<?xml version="1.0" encoding="UTF-8" standalone="no"?>
<!-- Created with Inkscape (http://www.inkscape.org/) -->

<svg
   width="200"
   height="200"
   viewBox="0 0 52.916665 52.916668"
   version="1.1"
   id="svg5"
   inkscape:version="1.2.1 (9c6d41e410, 2022-07-14)"
   sodipodi:docname="assets.svg"
   xmlns:inkscape="http://www.inkscape.org/namespaces/inkscape"
   xmlns:sodipodi="http://sodipodi.sourceforge.net/DTD/sodipodi-0.dtd"
   xmlns="http://www.w3.org/2000/svg"
   xmlns:svg="http://www.w3.org/2000/svg">
  <sodipodi:namedview
     id="namedview7"
     pagecolor="#ffffff"
     bordercolor="#666666"
     borderopacity="1.0"
     inkscape:pageshadow="2"
     inkscape:pageopacity="0.0"
     inkscape:pagecheckerboard="0"
     inkscape:document-units="px"
     showgrid="false"
     inkscape:zoom="11.313708"
     inkscape:cx="192.90758"
     inkscape:cy="17.545088"
     inkscape:window-width="1920"
     inkscape:window-height="916"
     inkscape:window-x="0"
     inkscape:window-y="0"
     inkscape:window-maximized="1"
     inkscape:current-layer="layer1"
     units="px"
     width="200px"
     inkscape:showpageshadow="2"
     inkscape:deskcolor="#d1d1d1">
    <inkscape:grid
       type="xygrid"
       id="grid181" />
  </sodipodi:namedview>
  <defs
     id="defs2" />
  <g
     inkscape:label="Lager 1"
     inkscape:groupmode="layer"
     id="layer1">
    <g
       id="slider-horz-scale-has-marks-below"
       transform="matrix(0.95833952,0,0,1,-25.730916,-16.404167)">
      <path
         id="path11358"
         style="fill:#000000;fill-opacity:0.0593788;fill-rule:evenodd;stroke:none;stroke-width:0.333783;stroke-opacity:1"
         d="m 33.337528,19.579275 c -1.758964,0 -3.175028,1.376717 -3.175028,3.086808 v 0.308681 c 0,0 0.0011,0.339275 0.248668,0.895292 0.0093,0.02088 0.01852,0.04176 0.02853,0.06324 0.01353,0.02928 0.02712,0.05856 0.04154,0.08739 0.0086,0.0175 0.01821,0.03524 0.02728,0.05308 0.377449,0.739643 1.166806,1.782407 2.821559,2.908347 v 0.0054 c 0.0013,-9.26e-4 0.0025,-0.0011 0.0037,-0.0022 0.0013,9.27e-4 0.0025,0.0011 0.0037,0.0022 v -0.0054 c 1.553057,-1.054255 2.343661,-2.035149 2.747143,-2.763041 0.102567,-0.171649 0.188097,-0.353599 0.255492,-0.544406 0.01036,-0.0294 0.0209,-0.05892 0.03038,-0.08867 0.132516,-0.383121 0.134567,-0.61134 0.134567,-0.61134 h 0.0074 v -0.30868 c 0,-1.710092 -1.416063,-3.086809 -3.175029,-3.086809 z" />
      <path
         id="path11074"
         style="fill:#000000;fill-opacity:0.08;fill-rule:evenodd;stroke:none;stroke-width:0.307948;stroke-opacity:1"
         d="m 33.337525,19.843853 c -1.612384,0 -2.910442,1.278381 -2.910442,2.866324 v 0.286632 c 0,0 0.001,0.315041 0.227946,0.831343 0.0085,0.01939 0.01698,0.03878 0.02615,0.05872 0.0124,0.02719 0.02486,0.05438 0.03808,0.08115 0.0079,0.01625 0.01669,0.03272 0.02501,0.04929 0.345995,0.686811 1.069572,1.655093 2.586428,2.700609 v 0.005 c 0.0012,-8.6e-4 0.0023,-0.001 0.0034,-0.002 0.0012,8.6e-4 0.0023,10e-4 0.0034,0.002 v -0.005 c 1.423635,-0.978951 2.148356,-1.889782 2.518214,-2.565682 0.09402,-0.159389 0.172422,-0.328342 0.234201,-0.50552 0.0095,-0.0273 0.01916,-0.05471 0.02785,-0.08234 0.121473,-0.355755 0.123353,-0.567673 0.123353,-0.567673 h 0.0068 v -0.286632 c 0,-1.587943 -1.298057,-2.866324 -2.910443,-2.866324 z" />
      <path
         id="path10658"
         style="fill:#000000;fill-opacity:0.12;fill-rule:evenodd;stroke:none;stroke-width:0.307948;stroke-opacity:1"
         d="m 33.337525,19.579279 c -1.612384,0 -2.910442,1.27838 -2.910442,2.866322 v 0.286632 c 0,0 0.001,0.315041 0.227946,0.831343 0.0085,0.01939 0.01698,0.03878 0.02615,0.05872 0.0124,0.02719 0.02486,0.05438 0.03808,0.08114 0.0079,0.01625 0.01669,0.03272 0.02501,0.04929 0.345995,0.686811 1.069572,1.655089 2.586428,2.700611 v 0.005 c 0.0012,-8.6e-4 0.0023,-0.001 0.0034,-0.002 0.0012,8.6e-4 0.0023,10e-4 0.0034,0.002 v -0.005 c 1.423635,-0.978958 2.148356,-1.889785 2.518214,-2.565685 0.09402,-0.159389 0.172422,-0.328341 0.234201,-0.505519 0.0095,-0.0273 0.01916,-0.05471 0.02785,-0.08234 0.121473,-0.355754 0.123353,-0.567672 0.123353,-0.567672 h 0.0068 v -0.286632 c 0,-1.587942 -1.298057,-2.866322 -2.910443,-2.866322 z" />
      <path
         id="rect99"
         style="fill:#ffffff;fill-opacity:1;fill-rule:evenodd;stroke:none;stroke-width:0.282088;stroke-opacity:1"
         d="m 33.3375,19.84375 c -1.465791,0 -2.645833,1.179978 -2.645833,2.64569 v 0.264569 c 0,0 9.5e-4,0.29079 0.207222,0.767353 0.0077,0.01788 0.01544,0.03586 0.02377,0.05426 0.01127,0.02514 0.0226,0.05022 0.03462,0.07493 0.0072,0.01495 0.01517,0.03022 0.02274,0.04548 0.314539,0.633928 0.97233,1.527688 2.351278,2.492733 v 0.005 c 0.0011,-7.9e-4 0.0021,-9.9e-4 0.0031,-0.002 0.0011,7.9e-4 0.0021,0.001 0.0031,0.002 v -0.005 c 1.294202,-0.903608 1.953033,-1.744326 2.289265,-2.3682 0.08547,-0.147119 0.156745,-0.303067 0.212908,-0.466613 0.0086,-0.02517 0.01742,-0.05046 0.02532,-0.07596 0.110429,-0.328364 0.112138,-0.52397 0.112138,-0.52397 h 0.0062 v -0.264569 c 0,-1.465712 -1.180042,-2.64569 -2.645834,-2.64569 z" />
    </g>
    <rect
       style="fill:#242424;fill-opacity:1;stroke:none;stroke-width:0.262661;stroke-opacity:1"
       id="rect12053"
       width="26.458334"
       height="52.916668"
       x="26.458334"
       y="0" />
    <g
       id="slider-horz-scale-has-marks-below-dark"
       transform="matrix(0.95833952,0,0,1,0.19826219,-16.404167)">
      <path
         id="path11740"
         style="fill:#000000;fill-opacity:0.0593788;fill-rule:evenodd;stroke:none;stroke-width:0.333783;stroke-opacity:1"
         d="m 33.337528,19.579275 c -1.758964,0 -3.175028,1.376717 -3.175028,3.086808 v 0.308681 c 0,0 0.0011,0.339275 0.248668,0.895292 0.0093,0.02088 0.01852,0.04176 0.02853,0.06324 0.01353,0.02928 0.02712,0.05856 0.04154,0.08739 0.0086,0.0175 0.01821,0.03524 0.02728,0.05308 0.377449,0.739643 1.166806,1.782407 2.821559,2.908347 v 0.0054 c 0.0013,-9.26e-4 0.0025,-0.0011 0.0037,-0.0022 0.0013,9.27e-4 0.0025,0.0011 0.0037,0.0022 v -0.0054 c 1.553057,-1.054255 2.343661,-2.035149 2.747143,-2.763041 0.102567,-0.171649 0.188097,-0.353599 0.255492,-0.544406 0.01036,-0.0294 0.0209,-0.05892 0.03038,-0.08867 0.132516,-0.383121 0.134567,-0.61134 0.134567,-0.61134 h 0.0074 v -0.30868 c 0,-1.710092 -1.416063,-3.086809 -3.175029,-3.086809 z" />
      <path
         id="path11742"
         style="fill:#000000;fill-opacity:0.08;fill-rule:evenodd;stroke:none;stroke-width:0.307948;stroke-opacity:1"
         d="m 33.337525,19.843853 c -1.612384,0 -2.910442,1.278381 -2.910442,2.866324 v 0.286632 c 0,0 0.001,0.315041 0.227946,0.831343 0.0085,0.01939 0.01698,0.03878 0.02615,0.05872 0.0124,0.02719 0.02486,0.05438 0.03808,0.08115 0.0079,0.01625 0.01669,0.03272 0.02501,0.04929 0.345995,0.686811 1.069572,1.655093 2.586428,2.700609 v 0.005 c 0.0012,-8.6e-4 0.0023,-0.001 0.0034,-0.002 0.0012,8.6e-4 0.0023,10e-4 0.0034,0.002 v -0.005 c 1.423635,-0.978951 2.148356,-1.889782 2.518214,-2.565682 0.09402,-0.159389 0.172422,-0.328342 0.234201,-0.50552 0.0095,-0.0273 0.01916,-0.05471 0.02785,-0.08234 0.121473,-0.355755 0.123353,-0.567673 0.123353,-0.567673 h 0.0068 v -0.286632 c 0,-1.587943 -1.298057,-2.866324 -2.910443,-2.866324 z" />
      <path
         id="path11744"
         style="fill:#000000;fill-opacity:0.12;fill-rule:evenodd;stroke:none;stroke-width:0.307948;stroke-opacity:1"
         d="m 33.337525,19.579279 c -1.612384,0 -2.910442,1.27838 -2.910442,2.866322 v 0.286632 c 0,0 0.001,0.315041 0.227946,0.831343 0.0085,0.01939 0.01698,0.03878 0.02615,0.05872 0.0124,0.02719 0.02486,0.05438 0.03808,0.08114 0.0079,0.01625 0.01669,0.03272 0.02501,0.04929 0.345995,0.686811 1.069572,1.655089 2.586428,2.700611 v 0.005 c 0.0012,-8.6e-4 0.0023,-0.001 0.0034,-0.002 0.0012,8.6e-4 0.0023,10e-4 0.0034,0.002 v -0.005 c 1.423635,-0.978958 2.148356,-1.889785 2.518214,-2.565685 0.09402,-0.159389 0.172422,-0.328341 0.234201,-0.505519 0.0095,-0.0273 0.01916,-0.05471 0.02785,-0.08234 0.121473,-0.355754 0.123353,-0.567672 0.123353,-0.567672 h 0.0068 v -0.286632 c 0,-1.587942 -1.298057,-2.866322 -2.910443,-2.866322 z" />
      <path
         id="path11746"
         style="fill:#d2d2d2;fill-opacity:1;fill-rule:evenodd;stroke:none;stroke-width:0.282088;stroke-opacity:1"
         d="m 33.3375,19.84375 c -1.465791,0 -2.645833,1.179978 -2.645833,2.64569 v 0.264569 c 0,0 9.5e-4,0.29079 0.207222,0.767353 0.0077,0.01788 0.01544,0.03586 0.02377,0.05426 0.01127,0.02514 0.0226,0.05022 0.03462,0.07493 0.0072,0.01495 0.01517,0.03022 0.02274,0.04548 0.314539,0.633928 0.97233,1.527688 2.351278,2.492733 v 0.005 c 0.0011,-7.9e-4 0.0021,-9.9e-4 0.0031,-0.002 0.0011,7.9e-4 0.0021,0.001 0.0031,0.002 v -0.005 c 1.294202,-0.903608 1.953033,-1.744326 2.289265,-2.3682 0.08547,-0.147119 0.156745,-0.303067 0.212908,-0.466613 0.0086,-0.02517 0.01742,-0.05046 0.02532,-0.07596 0.110429,-0.328364 0.112138,-0.52397 0.112138,-0.52397 h 0.0062 v -0.264569 c 0,-1.465712 -1.180042,-2.64569 -2.645834,-2.64569 z" />
    </g>
    <g
       id="slider-horz-scale-has-marks-below-insensitive"
       transform="matrix(0.95833952,0,0,1,-18.322578,-16.404167)">
      <path
         id="path12419"
         style="fill:#000000;fill-opacity:0;fill-rule:evenodd;stroke:none;stroke-width:0.333783;stroke-opacity:1"
         d="m 33.337528,19.579275 c -1.758964,0 -3.175028,1.376717 -3.175028,3.086808 v 0.308681 c 0,0 0.0011,0.339275 0.248668,0.895292 0.0093,0.02088 0.01852,0.04176 0.02853,0.06324 0.01353,0.02928 0.02712,0.05856 0.04154,0.08739 0.0086,0.0175 0.01821,0.03524 0.02728,0.05308 0.377449,0.739643 1.166806,1.782407 2.821559,2.908347 v 0.0054 c 0.0013,-9.26e-4 0.0025,-0.0011 0.0037,-0.0022 0.0013,9.27e-4 0.0025,0.0011 0.0037,0.0022 v -0.0054 c 1.553057,-1.054255 2.343661,-2.035149 2.747143,-2.763041 0.102567,-0.171649 0.188097,-0.353599 0.255492,-0.544406 0.01036,-0.0294 0.0209,-0.05892 0.03038,-0.08867 0.132516,-0.383121 0.134567,-0.61134 0.134567,-0.61134 h 0.0074 v -0.30868 c 0,-1.710092 -1.416063,-3.086809 -3.175029,-3.086809 z" />
      <path
         id="path12421"
         style="fill:#000000;fill-opacity:0;fill-rule:evenodd;stroke:none;stroke-width:0.307948;stroke-opacity:1"
         d="m 33.337525,19.843853 c -1.612384,0 -2.910442,1.278381 -2.910442,2.866324 v 0.286632 c 0,0 0.001,0.315041 0.227946,0.831343 0.0085,0.01939 0.01698,0.03878 0.02615,0.05872 0.0124,0.02719 0.02486,0.05438 0.03808,0.08115 0.0079,0.01625 0.01669,0.03272 0.02501,0.04929 0.345995,0.686811 1.069572,1.655093 2.586428,2.700609 v 0.005 c 0.0012,-8.6e-4 0.0023,-0.001 0.0034,-0.002 0.0012,8.6e-4 0.0023,10e-4 0.0034,0.002 v -0.005 c 1.423635,-0.978951 2.148356,-1.889782 2.518214,-2.565682 0.09402,-0.159389 0.172422,-0.328342 0.234201,-0.50552 0.0095,-0.0273 0.01916,-0.05471 0.02785,-0.08234 0.121473,-0.355755 0.123353,-0.567673 0.123353,-0.567673 h 0.0068 v -0.286632 c 0,-1.587943 -1.298057,-2.866324 -2.910443,-2.866324 z" />
      <path
         id="path12423"
         style="fill:#000000;fill-opacity:0.12;fill-rule:evenodd;stroke:none;stroke-width:0.307948;stroke-opacity:1"
         d="m 33.337525,19.579279 c -1.612384,0 -2.910442,1.27838 -2.910442,2.866322 v 0.286632 c 0,0 0.001,0.315041 0.227946,0.831343 0.0085,0.01939 0.01698,0.03878 0.02615,0.05872 0.0124,0.02719 0.02486,0.05438 0.03808,0.08114 0.0079,0.01625 0.01669,0.03272 0.02501,0.04929 0.345995,0.686811 1.069572,1.655089 2.586428,2.700611 v 0.005 c 0.0012,-8.6e-4 0.0023,-0.001 0.0034,-0.002 0.0012,8.6e-4 0.0023,10e-4 0.0034,0.002 v -0.005 c 1.423635,-0.978958 2.148356,-1.889785 2.518214,-2.565685 0.09402,-0.159389 0.172422,-0.328341 0.234201,-0.505519 0.0095,-0.0273 0.01916,-0.05471 0.02785,-0.08234 0.121473,-0.355754 0.123353,-0.567672 0.123353,-0.567672 h 0.0068 v -0.286632 c 0,-1.587942 -1.298057,-2.866322 -2.910443,-2.866322 z" />
      <path
         id="path12425"
         style="fill:#fdfdfd;fill-opacity:1;fill-rule:evenodd;stroke:none;stroke-width:0.282088;stroke-opacity:1"
         d="m 33.3375,19.84375 c -1.465791,0 -2.645833,1.179978 -2.645833,2.64569 v 0.264569 c 0,0 9.5e-4,0.29079 0.207222,0.767353 0.0077,0.01788 0.01544,0.03586 0.02377,0.05426 0.01127,0.02514 0.0226,0.05022 0.03462,0.07493 0.0072,0.01495 0.01517,0.03022 0.02274,0.04548 0.314539,0.633928 0.97233,1.527688 2.351278,2.492733 v 0.005 c 0.0011,-7.9e-4 0.0021,-9.9e-4 0.0031,-0.002 0.0011,7.9e-4 0.0021,0.001 0.0031,0.002 v -0.005 c 1.294202,-0.903608 1.953033,-1.744326 2.289265,-2.3682 0.08547,-0.147119 0.156745,-0.303067 0.212908,-0.466613 0.0086,-0.02517 0.01742,-0.05046 0.02532,-0.07596 0.110429,-0.328364 0.112138,-0.52397 0.112138,-0.52397 h 0.0062 v -0.264569 c 0,-1.465712 -1.180042,-2.64569 -2.645834,-2.64569 z" />
    </g>
    <g
       id="slider-horz-scale-has-marks-below-insensitive-dark"
       transform="matrix(0.95833952,0,0,1,7.6065959,-16.404167)">
      <path
         id="path13200"
         style="fill:#000000;fill-opacity:0;fill-rule:evenodd;stroke:none;stroke-width:0.333783;stroke-opacity:1"
         d="m 33.337528,19.579275 c -1.758964,0 -3.175028,1.376717 -3.175028,3.086808 v 0.308681 c 0,0 0.0011,0.339275 0.248668,0.895292 0.0093,0.02088 0.01852,0.04176 0.02853,0.06324 0.01353,0.02928 0.02712,0.05856 0.04154,0.08739 0.0086,0.0175 0.01821,0.03524 0.02728,0.05308 0.377449,0.739643 1.166806,1.782407 2.821559,2.908347 v 0.0054 c 0.0013,-9.26e-4 0.0025,-0.0011 0.0037,-0.0022 0.0013,9.27e-4 0.0025,0.0011 0.0037,0.0022 v -0.0054 c 1.553057,-1.054255 2.343661,-2.035149 2.747143,-2.763041 0.102567,-0.171649 0.188097,-0.353599 0.255492,-0.544406 0.01036,-0.0294 0.0209,-0.05892 0.03038,-0.08867 0.132516,-0.383121 0.134567,-0.61134 0.134567,-0.61134 h 0.0074 v -0.30868 c 0,-1.710092 -1.416063,-3.086809 -3.175029,-3.086809 z" />
      <path
         id="path13202"
         style="fill:#000000;fill-opacity:0;fill-rule:evenodd;stroke:none;stroke-width:0.307948;stroke-opacity:1"
         d="m 33.337525,19.843853 c -1.612384,0 -2.910442,1.278381 -2.910442,2.866324 v 0.286632 c 0,0 0.001,0.315041 0.227946,0.831343 0.0085,0.01939 0.01698,0.03878 0.02615,0.05872 0.0124,0.02719 0.02486,0.05438 0.03808,0.08115 0.0079,0.01625 0.01669,0.03272 0.02501,0.04929 0.345995,0.686811 1.069572,1.655093 2.586428,2.700609 v 0.005 c 0.0012,-8.6e-4 0.0023,-0.001 0.0034,-0.002 0.0012,8.6e-4 0.0023,10e-4 0.0034,0.002 v -0.005 c 1.423635,-0.978951 2.148356,-1.889782 2.518214,-2.565682 0.09402,-0.159389 0.172422,-0.328342 0.234201,-0.50552 0.0095,-0.0273 0.01916,-0.05471 0.02785,-0.08234 0.121473,-0.355755 0.123353,-0.567673 0.123353,-0.567673 h 0.0068 v -0.286632 c 0,-1.587943 -1.298057,-2.866324 -2.910443,-2.866324 z" />
      <path
         id="path13204"
         style="fill:#000000;fill-opacity:0.12;fill-rule:evenodd;stroke:none;stroke-width:0.307948;stroke-opacity:1"
         d="m 33.337525,19.579279 c -1.612384,0 -2.910442,1.27838 -2.910442,2.866322 v 0.286632 c 0,0 0.001,0.315041 0.227946,0.831343 0.0085,0.01939 0.01698,0.03878 0.02615,0.05872 0.0124,0.02719 0.02486,0.05438 0.03808,0.08114 0.0079,0.01625 0.01669,0.03272 0.02501,0.04929 0.345995,0.686811 1.069572,1.655089 2.586428,2.700611 v 0.005 c 0.0012,-8.6e-4 0.0023,-0.001 0.0034,-0.002 0.0012,8.6e-4 0.0023,10e-4 0.0034,0.002 v -0.005 c 1.423635,-0.978958 2.148356,-1.889785 2.518214,-2.565685 0.09402,-0.159389 0.172422,-0.328341 0.234201,-0.505519 0.0095,-0.0273 0.01916,-0.05471 0.02785,-0.08234 0.121473,-0.355754 0.123353,-0.567672 0.123353,-0.567672 h 0.0068 v -0.286632 c 0,-1.587942 -1.298057,-2.866322 -2.910443,-2.866322 z" />
      <path
         id="path13206"
         style="fill:#7b7b7b;fill-opacity:1;fill-rule:evenodd;stroke:none;stroke-width:0.282088;stroke-opacity:1"
         d="m 33.3375,19.84375 c -1.465791,0 -2.645833,1.179978 -2.645833,2.64569 v 0.264569 c 0,0 9.5e-4,0.29079 0.207222,0.767353 0.0077,0.01788 0.01544,0.03586 0.02377,0.05426 0.01127,0.02514 0.0226,0.05022 0.03462,0.07493 0.0072,0.01495 0.01517,0.03022 0.02274,0.04548 0.314539,0.633928 0.97233,1.527688 2.351278,2.492733 v 0.005 c 0.0011,-7.9e-4 0.0021,-9.9e-4 0.0031,-0.002 0.0011,7.9e-4 0.0021,0.001 0.0031,0.002 v -0.005 c 1.294202,-0.903608 1.953033,-1.744326 2.289265,-2.3682 0.08547,-0.147119 0.156745,-0.303067 0.212908,-0.466613 0.0086,-0.02517 0.01742,-0.05046 0.02532,-0.07596 0.110429,-0.328364 0.112138,-0.52397 0.112138,-0.52397 h 0.0062 v -0.264569 c 0,-1.465712 -1.180042,-2.64569 -2.645834,-2.64569 z" />
    </g>
    <g
       id="slider-horz-scale-has-marks-above"
       transform="matrix(0.95833952,0,0,-1,-25.730916,39.687517)">
      <path
         id="path13468"
         style="fill:#000000;fill-opacity:0.0593788;fill-rule:evenodd;stroke:none;stroke-width:0.333783;stroke-opacity:1"
         d="m 33.337528,19.050108 c -1.758964,0 -3.175028,1.376717 -3.175028,3.086808 v 0.308681 c 0,0 0.0011,0.339275 0.248668,0.895292 0.0093,0.02088 0.01852,0.04176 0.02853,0.06324 0.01353,0.02928 0.02712,0.05856 0.04154,0.08739 0.0086,0.0175 0.01821,0.03524 0.02728,0.05308 0.377449,0.739643 1.166806,1.782407 2.821559,2.908347 v 0.0054 c 0.0013,-9.26e-4 0.0025,-0.0011 0.0037,-0.0022 0.0013,9.27e-4 0.0025,0.0011 0.0037,0.0022 v -0.0054 c 1.553057,-1.054255 2.343661,-2.035149 2.747143,-2.763041 0.102567,-0.171649 0.188097,-0.353599 0.255492,-0.544406 0.01036,-0.0294 0.0209,-0.05892 0.03038,-0.08867 0.132516,-0.383121 0.134567,-0.61134 0.134567,-0.61134 h 0.0074 v -0.30868 C 36.512459,20.426717 35.096396,19.05 33.33743,19.05 Z" />
      <path
         id="path13470"
         style="fill:#000000;fill-opacity:0.08;fill-rule:evenodd;stroke:none;stroke-width:0.307948;stroke-opacity:1"
         d="m 33.337525,19.314686 c -1.612384,0 -2.910442,1.278381 -2.910442,2.866324 v 0.286632 c 0,0 0.001,0.315041 0.227946,0.831343 0.0085,0.01939 0.01698,0.03878 0.02615,0.05872 0.0124,0.02719 0.02486,0.05438 0.03808,0.08115 0.0079,0.01625 0.01669,0.03272 0.02501,0.04929 0.345995,0.686811 1.069572,1.655093 2.586428,2.700609 v 0.005 c 0.0012,-8.6e-4 0.0023,-10e-4 0.0034,-0.002 0.0012,8.6e-4 0.0023,0.001 0.0034,0.002 v -0.005 c 1.423635,-0.978951 2.148356,-1.889782 2.518214,-2.565682 0.09402,-0.159389 0.172422,-0.328342 0.234201,-0.50552 0.0095,-0.0273 0.01916,-0.05471 0.02785,-0.08234 0.121473,-0.355755 0.123353,-0.567673 0.123353,-0.567673 h 0.0068 v -0.286632 c 0,-1.587943 -1.298057,-2.866324 -2.910443,-2.866324 z" />
      <path
         id="path13472"
         style="fill:#000000;fill-opacity:0.12;fill-rule:evenodd;stroke:none;stroke-width:0.307948;stroke-opacity:1"
         d="m 33.337525,19.579279 c -1.612384,0 -2.910442,1.27838 -2.910442,2.866322 v 0.286632 c 0,0 0.001,0.315041 0.227946,0.831343 0.0085,0.01939 0.01698,0.03878 0.02615,0.05872 0.0124,0.02719 0.02486,0.05438 0.03808,0.08114 0.0079,0.01625 0.01669,0.03272 0.02501,0.04929 0.345995,0.686811 1.069572,1.655089 2.586428,2.700611 v 0.005 c 0.0012,-8.6e-4 0.0023,-0.001 0.0034,-0.002 0.0012,8.6e-4 0.0023,10e-4 0.0034,0.002 v -0.005 c 1.423635,-0.978958 2.148356,-1.889785 2.518214,-2.565685 0.09402,-0.159389 0.172422,-0.328341 0.234201,-0.505519 0.0095,-0.0273 0.01916,-0.05471 0.02785,-0.08234 0.121473,-0.355754 0.123353,-0.567672 0.123353,-0.567672 h 0.0068 v -0.286632 c 0,-1.587942 -1.298057,-2.866322 -2.910443,-2.866322 z" />
      <path
         id="path13474"
         style="fill:#ffffff;fill-opacity:1;fill-rule:evenodd;stroke:none;stroke-width:0.282088;stroke-opacity:1"
         d="m 33.3375,19.84375 c -1.465791,0 -2.645833,1.179978 -2.645833,2.64569 v 0.264569 c 0,0 9.5e-4,0.29079 0.207222,0.767353 0.0077,0.01788 0.01544,0.03586 0.02377,0.05426 0.01127,0.02514 0.0226,0.05022 0.03462,0.07493 0.0072,0.01495 0.01517,0.03022 0.02274,0.04548 0.314539,0.633928 0.97233,1.527688 2.351278,2.492733 v 0.005 c 0.0011,-7.9e-4 0.0021,-9.9e-4 0.0031,-0.002 0.0011,7.9e-4 0.0021,0.001 0.0031,0.002 v -0.005 c 1.294202,-0.903608 1.953033,-1.744326 2.289265,-2.3682 0.08547,-0.147119 0.156745,-0.303067 0.212908,-0.466613 0.0086,-0.02517 0.01742,-0.05046 0.02532,-0.07596 0.110429,-0.328364 0.112138,-0.52397 0.112138,-0.52397 h 0.0062 v -0.264569 c 0,-1.465712 -1.180042,-2.64569 -2.645834,-2.64569 z" />
    </g>
    <g
       id="slider-vert-scale-has-marks-below"
       transform="matrix(0,-0.95833393,1,0,-16.933361,58.285487)">
      <path
         id="path14420"
         style="fill:#000000;fill-opacity:0.0593788;fill-rule:evenodd;stroke:none;stroke-width:0.333783;stroke-opacity:1"
         d="m 33.072947,19.314719 c -1.758964,0 -3.175028,1.376717 -3.175028,3.086808 v 0.308681 c 0,0 0.0011,0.339275 0.248668,0.895292 0.0093,0.02088 0.01852,0.04176 0.02853,0.06324 0.01353,0.02928 0.02712,0.05856 0.04154,0.08739 0.0086,0.0175 0.01821,0.03524 0.02728,0.05308 0.377449,0.739643 1.166806,1.782407 2.821559,2.908347 v 0.0054 c 0.0013,-9.26e-4 0.0025,-0.0011 0.0037,-0.0022 0.0013,9.27e-4 0.0025,0.0011 0.0037,0.0022 v -0.0054 c 1.553057,-1.054255 2.343661,-2.035149 2.747143,-2.763041 0.102567,-0.171649 0.188097,-0.353599 0.255492,-0.544406 0.01036,-0.0294 0.0209,-0.05892 0.03038,-0.08867 0.132516,-0.383121 0.134567,-0.61134 0.134567,-0.61134 h 0.0074 v -0.30868 c 0,-1.710092 -1.416063,-3.086809 -3.175029,-3.086809 z" />
      <path
         id="path14422"
         style="fill:#000000;fill-opacity:0.08;fill-rule:evenodd;stroke:none;stroke-width:0.307948;stroke-opacity:1"
         d="m 33.072905,19.579297 c -1.612384,0 -2.910442,1.278381 -2.910442,2.866324 v 0.286632 c 0,0 0.001,0.315041 0.227946,0.831343 0.0085,0.01939 0.01698,0.03878 0.02615,0.05872 0.0124,0.02719 0.02486,0.05438 0.03808,0.08115 0.0079,0.01625 0.01669,0.03272 0.02501,0.04929 0.345995,0.686811 1.069572,1.655093 2.586428,2.700609 v 0.005 c 0.0012,-8.6e-4 0.0023,-0.001 0.0034,-0.002 0.0012,8.6e-4 0.0023,10e-4 0.0034,0.002 v -0.005 c 1.423635,-0.978951 2.148356,-1.889782 2.518214,-2.565682 0.09402,-0.159389 0.172422,-0.328342 0.234201,-0.50552 0.0095,-0.0273 0.01916,-0.05471 0.02785,-0.08234 0.121473,-0.355755 0.123353,-0.567673 0.123353,-0.567673 h 0.0068 v -0.286632 c 0,-1.587943 -1.298057,-2.866324 -2.910443,-2.866324 z" />
      <path
         id="path14424"
         style="fill:#000000;fill-opacity:0.12;fill-rule:evenodd;stroke:none;stroke-width:0.307948;stroke-opacity:1"
         d="m 33.337525,19.579279 c -1.612384,0 -2.910442,1.27838 -2.910442,2.866322 v 0.286632 c 0,0 0.001,0.315041 0.227946,0.831343 0.0085,0.01939 0.01698,0.03878 0.02615,0.05872 0.0124,0.02719 0.02486,0.05438 0.03808,0.08114 0.0079,0.01625 0.01669,0.03272 0.02501,0.04929 0.345995,0.686811 1.069572,1.655089 2.586428,2.700611 v 0.005 c 0.0012,-8.6e-4 0.0023,-0.001 0.0034,-0.002 0.0012,8.6e-4 0.0023,10e-4 0.0034,0.002 v -0.005 c 1.423635,-0.978958 2.148356,-1.889785 2.518214,-2.565685 0.09402,-0.159389 0.172422,-0.328341 0.234201,-0.505519 0.0095,-0.0273 0.01916,-0.05471 0.02785,-0.08234 0.121473,-0.355754 0.123353,-0.567672 0.123353,-0.567672 h 0.0068 v -0.286632 c 0,-1.587942 -1.298057,-2.866322 -2.910443,-2.866322 z" />
      <path
         id="path14426"
         style="fill:#ffffff;fill-opacity:1;fill-rule:evenodd;stroke:none;stroke-width:0.282088;stroke-opacity:1"
         d="m 33.3375,19.84375 c -1.465791,0 -2.645833,1.179978 -2.645833,2.64569 v 0.264569 c 0,0 9.5e-4,0.29079 0.207222,0.767353 0.0077,0.01788 0.01544,0.03586 0.02377,0.05426 0.01127,0.02514 0.0226,0.05022 0.03462,0.07493 0.0072,0.01495 0.01517,0.03022 0.02274,0.04548 0.314539,0.633928 0.97233,1.527688 2.351278,2.492733 v 0.005 c 0.0011,-7.9e-4 0.0021,-9.9e-4 0.0031,-0.002 0.0011,7.9e-4 0.0021,0.001 0.0031,0.002 v -0.005 c 1.294202,-0.903608 1.953033,-1.744326 2.289265,-2.3682 0.08547,-0.147119 0.156745,-0.303067 0.212908,-0.466613 0.0086,-0.02517 0.01742,-0.05046 0.02532,-0.07596 0.110429,-0.328364 0.112138,-0.52397 0.112138,-0.52397 h 0.0062 v -0.264569 c 0,-1.465712 -1.180042,-2.64569 -2.645834,-2.64569 z" />
    </g>
    <g
       id="slider-horz-scale-has-marks-above-insensitive"
       transform="matrix(0.95833952,0,0,-1,-18.322578,39.687517)">
      <path
         id="path14774"
         style="fill:#000000;fill-opacity:0;fill-rule:evenodd;stroke:none;stroke-width:0.333783;stroke-opacity:1"
         d="m 33.337528,19.050108 c -1.758964,0 -3.175028,1.376717 -3.175028,3.086808 v 0.308681 c 0,0 0.0011,0.339275 0.248668,0.895292 0.0093,0.02088 0.01852,0.04176 0.02853,0.06324 0.01353,0.02928 0.02712,0.05856 0.04154,0.08739 0.0086,0.0175 0.01821,0.03524 0.02728,0.05308 0.377449,0.739643 1.166806,1.782407 2.821559,2.908347 v 0.0054 c 0.0013,-9.26e-4 0.0025,-0.0011 0.0037,-0.0022 0.0013,9.27e-4 0.0025,0.0011 0.0037,0.0022 v -0.0054 c 1.553057,-1.054255 2.343661,-2.035149 2.747143,-2.763041 0.102567,-0.171649 0.188097,-0.353599 0.255492,-0.544406 0.01036,-0.0294 0.0209,-0.05892 0.03038,-0.08867 0.132516,-0.383121 0.134567,-0.61134 0.134567,-0.61134 h 0.0074 v -0.30868 C 36.512459,20.426717 35.096396,19.05 33.33743,19.05 Z" />
      <path
         id="path14776"
         style="fill:#000000;fill-opacity:0;fill-rule:evenodd;stroke:none;stroke-width:0.307948;stroke-opacity:1"
         d="m 33.337525,19.314686 c -1.612384,0 -2.910442,1.278381 -2.910442,2.866324 v 0.286632 c 0,0 0.001,0.315041 0.227946,0.831343 0.0085,0.01939 0.01698,0.03878 0.02615,0.05872 0.0124,0.02719 0.02486,0.05438 0.03808,0.08115 0.0079,0.01625 0.01669,0.03272 0.02501,0.04929 0.345995,0.686811 1.069572,1.655093 2.586428,2.700609 v 0.005 c 0.0012,-8.6e-4 0.0023,-10e-4 0.0034,-0.002 0.0012,8.6e-4 0.0023,0.001 0.0034,0.002 v -0.005 c 1.423635,-0.978951 2.148356,-1.889782 2.518214,-2.565682 0.09402,-0.159389 0.172422,-0.328342 0.234201,-0.50552 0.0095,-0.0273 0.01916,-0.05471 0.02785,-0.08234 0.121473,-0.355755 0.123353,-0.567673 0.123353,-0.567673 h 0.0068 v -0.286632 c 0,-1.587943 -1.298057,-2.866324 -2.910443,-2.866324 z" />
      <path
         id="path14778"
         style="fill:#000000;fill-opacity:0.12;fill-rule:evenodd;stroke:none;stroke-width:0.307948;stroke-opacity:1"
         d="m 33.337525,19.579279 c -1.612384,0 -2.910442,1.27838 -2.910442,2.866322 v 0.286632 c 0,0 0.001,0.315041 0.227946,0.831343 0.0085,0.01939 0.01698,0.03878 0.02615,0.05872 0.0124,0.02719 0.02486,0.05438 0.03808,0.08114 0.0079,0.01625 0.01669,0.03272 0.02501,0.04929 0.345995,0.686811 1.069572,1.655089 2.586428,2.700611 v 0.005 c 0.0012,-8.6e-4 0.0023,-0.001 0.0034,-0.002 0.0012,8.6e-4 0.0023,10e-4 0.0034,0.002 v -0.005 c 1.423635,-0.978958 2.148356,-1.889785 2.518214,-2.565685 0.09402,-0.159389 0.172422,-0.328341 0.234201,-0.505519 0.0095,-0.0273 0.01916,-0.05471 0.02785,-0.08234 0.121473,-0.355754 0.123353,-0.567672 0.123353,-0.567672 h 0.0068 v -0.286632 c 0,-1.587942 -1.298057,-2.866322 -2.910443,-2.866322 z" />
      <path
         id="path14780"
         style="fill:#fdfdfd;fill-opacity:1;fill-rule:evenodd;stroke:none;stroke-width:0.282088;stroke-opacity:1"
         d="m 33.3375,19.84375 c -1.465791,0 -2.645833,1.179978 -2.645833,2.64569 v 0.264569 c 0,0 9.5e-4,0.29079 0.207222,0.767353 0.0077,0.01788 0.01544,0.03586 0.02377,0.05426 0.01127,0.02514 0.0226,0.05022 0.03462,0.07493 0.0072,0.01495 0.01517,0.03022 0.02274,0.04548 0.314539,0.633928 0.97233,1.527688 2.351278,2.492733 v 0.005 c 0.0011,-7.9e-4 0.0021,-9.9e-4 0.0031,-0.002 0.0011,7.9e-4 0.0021,0.001 0.0031,0.002 v -0.005 c 1.294202,-0.903608 1.953033,-1.744326 2.289265,-2.3682 0.08547,-0.147119 0.156745,-0.303067 0.212908,-0.466613 0.0086,-0.02517 0.01742,-0.05046 0.02532,-0.07596 0.110429,-0.328364 0.112138,-0.52397 0.112138,-0.52397 h 0.0062 v -0.264569 c 0,-1.465712 -1.180042,-2.64569 -2.645834,-2.64569 z" />
    </g>
    <g
       id="slider-vert-scale-has-marks-below-insensitive"
       transform="matrix(0,-0.95833393,1,0,-8.466705,58.285487)">
      <path
         id="path15039"
         style="fill:#000000;fill-opacity:0;fill-rule:evenodd;stroke:none;stroke-width:0.333783;stroke-opacity:1"
         d="m 33.072947,19.314719 c -1.758964,0 -3.175028,1.376717 -3.175028,3.086808 v 0.308681 c 0,0 0.0011,0.339275 0.248668,0.895292 0.0093,0.02088 0.01852,0.04176 0.02853,0.06324 0.01353,0.02928 0.02712,0.05856 0.04154,0.08739 0.0086,0.0175 0.01821,0.03524 0.02728,0.05308 0.377449,0.739643 1.166806,1.782407 2.821559,2.908347 v 0.0054 c 0.0013,-9.26e-4 0.0025,-0.0011 0.0037,-0.0022 0.0013,9.27e-4 0.0025,0.0011 0.0037,0.0022 v -0.0054 c 1.553057,-1.054255 2.343661,-2.035149 2.747143,-2.763041 0.102567,-0.171649 0.188097,-0.353599 0.255492,-0.544406 0.01036,-0.0294 0.0209,-0.05892 0.03038,-0.08867 0.132516,-0.383121 0.134567,-0.61134 0.134567,-0.61134 h 0.0074 v -0.30868 c 0,-1.710092 -1.416063,-3.086809 -3.175029,-3.086809 z" />
      <path
         id="path15041"
         style="fill:#000000;fill-opacity:0;fill-rule:evenodd;stroke:none;stroke-width:0.307948;stroke-opacity:1"
         d="m 33.072905,19.579297 c -1.612384,0 -2.910442,1.278381 -2.910442,2.866324 v 0.286632 c 0,0 0.001,0.315041 0.227946,0.831343 0.0085,0.01939 0.01698,0.03878 0.02615,0.05872 0.0124,0.02719 0.02486,0.05438 0.03808,0.08115 0.0079,0.01625 0.01669,0.03272 0.02501,0.04929 0.345995,0.686811 1.069572,1.655093 2.586428,2.700609 v 0.005 c 0.0012,-8.6e-4 0.0023,-0.001 0.0034,-0.002 0.0012,8.6e-4 0.0023,10e-4 0.0034,0.002 v -0.005 c 1.423635,-0.978951 2.148356,-1.889782 2.518214,-2.565682 0.09402,-0.159389 0.172422,-0.328342 0.234201,-0.50552 0.0095,-0.0273 0.01916,-0.05471 0.02785,-0.08234 0.121473,-0.355755 0.123353,-0.567673 0.123353,-0.567673 h 0.0068 v -0.286632 c 0,-1.587943 -1.298057,-2.866324 -2.910443,-2.866324 z" />
      <path
         id="path15043"
         style="fill:#000000;fill-opacity:0.12;fill-rule:evenodd;stroke:none;stroke-width:0.307948;stroke-opacity:1"
         d="m 33.337525,19.579279 c -1.612384,0 -2.910442,1.27838 -2.910442,2.866322 v 0.286632 c 0,0 0.001,0.315041 0.227946,0.831343 0.0085,0.01939 0.01698,0.03878 0.02615,0.05872 0.0124,0.02719 0.02486,0.05438 0.03808,0.08114 0.0079,0.01625 0.01669,0.03272 0.02501,0.04929 0.345995,0.686811 1.069572,1.655089 2.586428,2.700611 v 0.005 c 0.0012,-8.6e-4 0.0023,-0.001 0.0034,-0.002 0.0012,8.6e-4 0.0023,10e-4 0.0034,0.002 v -0.005 c 1.423635,-0.978958 2.148356,-1.889785 2.518214,-2.565685 0.09402,-0.159389 0.172422,-0.328341 0.234201,-0.505519 0.0095,-0.0273 0.01916,-0.05471 0.02785,-0.08234 0.121473,-0.355754 0.123353,-0.567672 0.123353,-0.567672 h 0.0068 v -0.286632 c 0,-1.587942 -1.298057,-2.866322 -2.910443,-2.866322 z" />
      <path
         id="path15045"
         style="fill:#fdfdfd;fill-opacity:1;fill-rule:evenodd;stroke:none;stroke-width:0.282088;stroke-opacity:1"
         d="m 33.3375,19.84375 c -1.465791,0 -2.645833,1.179978 -2.645833,2.64569 v 0.264569 c 0,0 9.5e-4,0.29079 0.207222,0.767353 0.0077,0.01788 0.01544,0.03586 0.02377,0.05426 0.01127,0.02514 0.0226,0.05022 0.03462,0.07493 0.0072,0.01495 0.01517,0.03022 0.02274,0.04548 0.314539,0.633928 0.97233,1.527688 2.351278,2.492733 v 0.005 c 0.0011,-7.9e-4 0.0021,-9.9e-4 0.0031,-0.002 0.0011,7.9e-4 0.0021,0.001 0.0031,0.002 v -0.005 c 1.294202,-0.903608 1.953033,-1.744326 2.289265,-2.3682 0.08547,-0.147119 0.156745,-0.303067 0.212908,-0.466613 0.0086,-0.02517 0.01742,-0.05046 0.02532,-0.07596 0.110429,-0.328364 0.112138,-0.52397 0.112138,-0.52397 h 0.0062 v -0.264569 c 0,-1.465712 -1.180042,-2.64569 -2.645834,-2.64569 z" />
    </g>
    <g
       id="slider-horz-scale-has-marks-above-dark"
       transform="matrix(0.95833952,0,0,-1,0.19826219,39.687517)">
      <path
         id="path15360"
         style="fill:#000000;fill-opacity:0.0593788;fill-rule:evenodd;stroke:none;stroke-width:0.333783;stroke-opacity:1"
         d="m 33.337528,19.050108 c -1.758964,0 -3.175028,1.376717 -3.175028,3.086808 v 0.308681 c 0,0 0.0011,0.339275 0.248668,0.895292 0.0093,0.02088 0.01852,0.04176 0.02853,0.06324 0.01353,0.02928 0.02712,0.05856 0.04154,0.08739 0.0086,0.0175 0.01821,0.03524 0.02728,0.05308 0.377449,0.739643 1.166806,1.782407 2.821559,2.908347 v 0.0054 c 0.0013,-9.26e-4 0.0025,-0.0011 0.0037,-0.0022 0.0013,9.27e-4 0.0025,0.0011 0.0037,0.0022 v -0.0054 c 1.553057,-1.054255 2.343661,-2.035149 2.747143,-2.763041 0.102567,-0.171649 0.188097,-0.353599 0.255492,-0.544406 0.01036,-0.0294 0.0209,-0.05892 0.03038,-0.08867 0.132516,-0.383121 0.134567,-0.61134 0.134567,-0.61134 h 0.0074 v -0.30868 C 36.512459,20.426717 35.096396,19.05 33.33743,19.05 Z" />
      <path
         id="path15362"
         style="fill:#000000;fill-opacity:0.08;fill-rule:evenodd;stroke:none;stroke-width:0.307948;stroke-opacity:1"
         d="m 33.337525,19.314686 c -1.612384,0 -2.910442,1.278381 -2.910442,2.866324 v 0.286632 c 0,0 0.001,0.315041 0.227946,0.831343 0.0085,0.01939 0.01698,0.03878 0.02615,0.05872 0.0124,0.02719 0.02486,0.05438 0.03808,0.08115 0.0079,0.01625 0.01669,0.03272 0.02501,0.04929 0.345995,0.686811 1.069572,1.655093 2.586428,2.700609 v 0.005 c 0.0012,-8.6e-4 0.0023,-10e-4 0.0034,-0.002 0.0012,8.6e-4 0.0023,0.001 0.0034,0.002 v -0.005 c 1.423635,-0.978951 2.148356,-1.889782 2.518214,-2.565682 0.09402,-0.159389 0.172422,-0.328342 0.234201,-0.50552 0.0095,-0.0273 0.01916,-0.05471 0.02785,-0.08234 0.121473,-0.355755 0.123353,-0.567673 0.123353,-0.567673 h 0.0068 v -0.286632 c 0,-1.587943 -1.298057,-2.866324 -2.910443,-2.866324 z" />
      <path
         id="path15364"
         style="fill:#000000;fill-opacity:0.12;fill-rule:evenodd;stroke:none;stroke-width:0.307948;stroke-opacity:1"
         d="m 33.337525,19.579279 c -1.612384,0 -2.910442,1.27838 -2.910442,2.866322 v 0.286632 c 0,0 0.001,0.315041 0.227946,0.831343 0.0085,0.01939 0.01698,0.03878 0.02615,0.05872 0.0124,0.02719 0.02486,0.05438 0.03808,0.08114 0.0079,0.01625 0.01669,0.03272 0.02501,0.04929 0.345995,0.686811 1.069572,1.655089 2.586428,2.700611 v 0.005 c 0.0012,-8.6e-4 0.0023,-0.001 0.0034,-0.002 0.0012,8.6e-4 0.0023,10e-4 0.0034,0.002 v -0.005 c 1.423635,-0.978958 2.148356,-1.889785 2.518214,-2.565685 0.09402,-0.159389 0.172422,-0.328341 0.234201,-0.505519 0.0095,-0.0273 0.01916,-0.05471 0.02785,-0.08234 0.121473,-0.355754 0.123353,-0.567672 0.123353,-0.567672 h 0.0068 v -0.286632 c 0,-1.587942 -1.298057,-2.866322 -2.910443,-2.866322 z" />
      <path
         id="path15366"
         style="fill:#d2d2d2;fill-opacity:1;fill-rule:evenodd;stroke:none;stroke-width:0.282088;stroke-opacity:1"
         d="m 33.3375,19.84375 c -1.465791,0 -2.645833,1.179978 -2.645833,2.64569 v 0.264569 c 0,0 9.5e-4,0.29079 0.207222,0.767353 0.0077,0.01788 0.01544,0.03586 0.02377,0.05426 0.01127,0.02514 0.0226,0.05022 0.03462,0.07493 0.0072,0.01495 0.01517,0.03022 0.02274,0.04548 0.314539,0.633928 0.97233,1.527688 2.351278,2.492733 v 0.005 c 0.0011,-7.9e-4 0.0021,-9.9e-4 0.0031,-0.002 0.0011,7.9e-4 0.0021,0.001 0.0031,0.002 v -0.005 c 1.294202,-0.903608 1.953033,-1.744326 2.289265,-2.3682 0.08547,-0.147119 0.156745,-0.303067 0.212908,-0.466613 0.0086,-0.02517 0.01742,-0.05046 0.02532,-0.07596 0.110429,-0.328364 0.112138,-0.52397 0.112138,-0.52397 h 0.0062 v -0.264569 c 0,-1.465712 -1.180042,-2.64569 -2.645834,-2.64569 z" />
    </g>
    <g
       id="slider-horz-scale-has-marks-above-insensitive-dark"
       transform="matrix(0.95833952,0,0,-1,7.6065959,39.687517)">
      <path
         id="path15370"
         style="fill:#000000;fill-opacity:0;fill-rule:evenodd;stroke:none;stroke-width:0.333783;stroke-opacity:1"
         d="m 33.337528,19.050108 c -1.758964,0 -3.175028,1.376717 -3.175028,3.086808 v 0.308681 c 0,0 0.0011,0.339275 0.248668,0.895292 0.0093,0.02088 0.01852,0.04176 0.02853,0.06324 0.01353,0.02928 0.02712,0.05856 0.04154,0.08739 0.0086,0.0175 0.01821,0.03524 0.02728,0.05308 0.377449,0.739643 1.166806,1.782407 2.821559,2.908347 v 0.0054 c 0.0013,-9.26e-4 0.0025,-0.0011 0.0037,-0.0022 0.0013,9.27e-4 0.0025,0.0011 0.0037,0.0022 v -0.0054 c 1.553057,-1.054255 2.343661,-2.035149 2.747143,-2.763041 0.102567,-0.171649 0.188097,-0.353599 0.255492,-0.544406 0.01036,-0.0294 0.0209,-0.05892 0.03038,-0.08867 0.132516,-0.383121 0.134567,-0.61134 0.134567,-0.61134 h 0.0074 v -0.30868 C 36.512459,20.426717 35.096396,19.05 33.33743,19.05 Z" />
      <path
         id="path15372"
         style="fill:#000000;fill-opacity:0;fill-rule:evenodd;stroke:none;stroke-width:0.307948;stroke-opacity:1"
         d="m 33.337525,19.314686 c -1.612384,0 -2.910442,1.278381 -2.910442,2.866324 v 0.286632 c 0,0 0.001,0.315041 0.227946,0.831343 0.0085,0.01939 0.01698,0.03878 0.02615,0.05872 0.0124,0.02719 0.02486,0.05438 0.03808,0.08115 0.0079,0.01625 0.01669,0.03272 0.02501,0.04929 0.345995,0.686811 1.069572,1.655093 2.586428,2.700609 v 0.005 c 0.0012,-8.6e-4 0.0023,-10e-4 0.0034,-0.002 0.0012,8.6e-4 0.0023,0.001 0.0034,0.002 v -0.005 c 1.423635,-0.978951 2.148356,-1.889782 2.518214,-2.565682 0.09402,-0.159389 0.172422,-0.328342 0.234201,-0.50552 0.0095,-0.0273 0.01916,-0.05471 0.02785,-0.08234 0.121473,-0.355755 0.123353,-0.567673 0.123353,-0.567673 h 0.0068 v -0.286632 c 0,-1.587943 -1.298057,-2.866324 -2.910443,-2.866324 z" />
      <path
         id="path15374"
         style="fill:#000000;fill-opacity:0.12;fill-rule:evenodd;stroke:none;stroke-width:0.307948;stroke-opacity:1"
         d="m 33.337525,19.579279 c -1.612384,0 -2.910442,1.27838 -2.910442,2.866322 v 0.286632 c 0,0 0.001,0.315041 0.227946,0.831343 0.0085,0.01939 0.01698,0.03878 0.02615,0.05872 0.0124,0.02719 0.02486,0.05438 0.03808,0.08114 0.0079,0.01625 0.01669,0.03272 0.02501,0.04929 0.345995,0.686811 1.069572,1.655089 2.586428,2.700611 v 0.005 c 0.0012,-8.6e-4 0.0023,-0.001 0.0034,-0.002 0.0012,8.6e-4 0.0023,10e-4 0.0034,0.002 v -0.005 c 1.423635,-0.978958 2.148356,-1.889785 2.518214,-2.565685 0.09402,-0.159389 0.172422,-0.328341 0.234201,-0.505519 0.0095,-0.0273 0.01916,-0.05471 0.02785,-0.08234 0.121473,-0.355754 0.123353,-0.567672 0.123353,-0.567672 h 0.0068 v -0.286632 c 0,-1.587942 -1.298057,-2.866322 -2.910443,-2.866322 z" />
      <path
         id="path15376"
         style="fill:#7b7b7b;fill-opacity:1;fill-rule:evenodd;stroke:none;stroke-width:0.282088;stroke-opacity:1"
         d="m 33.3375,19.84375 c -1.465791,0 -2.645833,1.179978 -2.645833,2.64569 v 0.264569 c 0,0 9.5e-4,0.29079 0.207222,0.767353 0.0077,0.01788 0.01544,0.03586 0.02377,0.05426 0.01127,0.02514 0.0226,0.05022 0.03462,0.07493 0.0072,0.01495 0.01517,0.03022 0.02274,0.04548 0.314539,0.633928 0.97233,1.527688 2.351278,2.492733 v 0.005 c 0.0011,-7.9e-4 0.0021,-9.9e-4 0.0031,-0.002 0.0011,7.9e-4 0.0021,0.001 0.0031,0.002 v -0.005 c 1.294202,-0.903608 1.953033,-1.744326 2.289265,-2.3682 0.08547,-0.147119 0.156745,-0.303067 0.212908,-0.466613 0.0086,-0.02517 0.01742,-0.05046 0.02532,-0.07596 0.110429,-0.328364 0.112138,-0.52397 0.112138,-0.52397 h 0.0062 v -0.264569 c 0,-1.465712 -1.180042,-2.64569 -2.645834,-2.64569 z" />
    </g>
    <g
       id="slider-vert-scale-has-marks-below-dark"
       transform="matrix(0,-0.95833393,1,0,8.995773,58.285487)">
      <path
         id="path960"
         style="fill:#000000;fill-opacity:0.0593788;fill-rule:evenodd;stroke:none;stroke-width:0.333783;stroke-opacity:1"
         d="m 33.072947,19.314719 c -1.758964,0 -3.175028,1.376717 -3.175028,3.086808 v 0.308681 c 0,0 0.0011,0.339275 0.248668,0.895292 0.0093,0.02088 0.01852,0.04176 0.02853,0.06324 0.01353,0.02928 0.02712,0.05856 0.04154,0.08739 0.0086,0.0175 0.01821,0.03524 0.02728,0.05308 0.377449,0.739643 1.166806,1.782407 2.821559,2.908347 v 0.0054 c 0.0013,-9.26e-4 0.0025,-0.0011 0.0037,-0.0022 0.0013,9.27e-4 0.0025,0.0011 0.0037,0.0022 v -0.0054 c 1.553057,-1.054255 2.343661,-2.035149 2.747143,-2.763041 0.102567,-0.171649 0.188097,-0.353599 0.255492,-0.544406 0.01036,-0.0294 0.0209,-0.05892 0.03038,-0.08867 0.132516,-0.383121 0.134567,-0.61134 0.134567,-0.61134 h 0.0074 v -0.30868 c 0,-1.710092 -1.416063,-3.086809 -3.175029,-3.086809 z" />
      <path
         id="path962"
         style="fill:#000000;fill-opacity:0.08;fill-rule:evenodd;stroke:none;stroke-width:0.307948;stroke-opacity:1"
         d="m 33.072905,19.579297 c -1.612384,0 -2.910442,1.278381 -2.910442,2.866324 v 0.286632 c 0,0 0.001,0.315041 0.227946,0.831343 0.0085,0.01939 0.01698,0.03878 0.02615,0.05872 0.0124,0.02719 0.02486,0.05438 0.03808,0.08115 0.0079,0.01625 0.01669,0.03272 0.02501,0.04929 0.345995,0.686811 1.069572,1.655093 2.586428,2.700609 v 0.005 c 0.0012,-8.6e-4 0.0023,-0.001 0.0034,-0.002 0.0012,8.6e-4 0.0023,10e-4 0.0034,0.002 v -0.005 c 1.423635,-0.978951 2.148356,-1.889782 2.518214,-2.565682 0.09402,-0.159389 0.172422,-0.328342 0.234201,-0.50552 0.0095,-0.0273 0.01916,-0.05471 0.02785,-0.08234 0.121473,-0.355755 0.123353,-0.567673 0.123353,-0.567673 h 0.0068 v -0.286632 c 0,-1.587943 -1.298057,-2.866324 -2.910443,-2.866324 z" />
      <path
         id="path964"
         style="fill:#000000;fill-opacity:0.12;fill-rule:evenodd;stroke:none;stroke-width:0.307948;stroke-opacity:1"
         d="m 33.337525,19.579279 c -1.612384,0 -2.910442,1.27838 -2.910442,2.866322 v 0.286632 c 0,0 0.001,0.315041 0.227946,0.831343 0.0085,0.01939 0.01698,0.03878 0.02615,0.05872 0.0124,0.02719 0.02486,0.05438 0.03808,0.08114 0.0079,0.01625 0.01669,0.03272 0.02501,0.04929 0.345995,0.686811 1.069572,1.655089 2.586428,2.700611 v 0.005 c 0.0012,-8.6e-4 0.0023,-0.001 0.0034,-0.002 0.0012,8.6e-4 0.0023,10e-4 0.0034,0.002 v -0.005 c 1.423635,-0.978958 2.148356,-1.889785 2.518214,-2.565685 0.09402,-0.159389 0.172422,-0.328341 0.234201,-0.505519 0.0095,-0.0273 0.01916,-0.05471 0.02785,-0.08234 0.121473,-0.355754 0.123353,-0.567672 0.123353,-0.567672 h 0.0068 v -0.286632 c 0,-1.587942 -1.298057,-2.866322 -2.910443,-2.866322 z" />
      <path
         id="path966"
         style="fill:#d2d2d2;fill-opacity:1;fill-rule:evenodd;stroke:none;stroke-width:0.282088;stroke-opacity:1"
         d="m 33.3375,19.84375 c -1.465791,0 -2.645833,1.179978 -2.645833,2.64569 v 0.264569 c 0,0 9.5e-4,0.29079 0.207222,0.767353 0.0077,0.01788 0.01544,0.03586 0.02377,0.05426 0.01127,0.02514 0.0226,0.05022 0.03462,0.07493 0.0072,0.01495 0.01517,0.03022 0.02274,0.04548 0.314539,0.633928 0.97233,1.527688 2.351278,2.492733 v 0.005 c 0.0011,-7.9e-4 0.0021,-9.9e-4 0.0031,-0.002 0.0011,7.9e-4 0.0021,0.001 0.0031,0.002 v -0.005 c 1.294202,-0.903608 1.953033,-1.744326 2.289265,-2.3682 0.08547,-0.147119 0.156745,-0.303067 0.212908,-0.466613 0.0086,-0.02517 0.01742,-0.05046 0.02532,-0.07596 0.110429,-0.328364 0.112138,-0.52397 0.112138,-0.52397 h 0.0062 v -0.264569 c 0,-1.465712 -1.180042,-2.64569 -2.645834,-2.64569 z" />
    </g>
    <g
       id="slider-vert-scale-has-marks-below-insensitive-dark"
       transform="matrix(0,-0.95833393,1,0,17.462429,58.285487)">
      <path
         id="path970"
         style="fill:#000000;fill-opacity:0;fill-rule:evenodd;stroke:none;stroke-width:0.333783;stroke-opacity:1"
         d="m 33.072947,19.314719 c -1.758964,0 -3.175028,1.376717 -3.175028,3.086808 v 0.308681 c 0,0 0.0011,0.339275 0.248668,0.895292 0.0093,0.02088 0.01852,0.04176 0.02853,0.06324 0.01353,0.02928 0.02712,0.05856 0.04154,0.08739 0.0086,0.0175 0.01821,0.03524 0.02728,0.05308 0.377449,0.739643 1.166806,1.782407 2.821559,2.908347 v 0.0054 c 0.0013,-9.26e-4 0.0025,-0.0011 0.0037,-0.0022 0.0013,9.27e-4 0.0025,0.0011 0.0037,0.0022 v -0.0054 c 1.553057,-1.054255 2.343661,-2.035149 2.747143,-2.763041 0.102567,-0.171649 0.188097,-0.353599 0.255492,-0.544406 0.01036,-0.0294 0.0209,-0.05892 0.03038,-0.08867 0.132516,-0.383121 0.134567,-0.61134 0.134567,-0.61134 h 0.0074 v -0.30868 c 0,-1.710092 -1.416063,-3.086809 -3.175029,-3.086809 z" />
      <path
         id="path972"
         style="fill:#000000;fill-opacity:0;fill-rule:evenodd;stroke:none;stroke-width:0.307948;stroke-opacity:1"
         d="m 33.072905,19.579297 c -1.612384,0 -2.910442,1.278381 -2.910442,2.866324 v 0.286632 c 0,0 0.001,0.315041 0.227946,0.831343 0.0085,0.01939 0.01698,0.03878 0.02615,0.05872 0.0124,0.02719 0.02486,0.05438 0.03808,0.08115 0.0079,0.01625 0.01669,0.03272 0.02501,0.04929 0.345995,0.686811 1.069572,1.655093 2.586428,2.700609 v 0.005 c 0.0012,-8.6e-4 0.0023,-0.001 0.0034,-0.002 0.0012,8.6e-4 0.0023,10e-4 0.0034,0.002 v -0.005 c 1.423635,-0.978951 2.148356,-1.889782 2.518214,-2.565682 0.09402,-0.159389 0.172422,-0.328342 0.234201,-0.50552 0.0095,-0.0273 0.01916,-0.05471 0.02785,-0.08234 0.121473,-0.355755 0.123353,-0.567673 0.123353,-0.567673 h 0.0068 v -0.286632 c 0,-1.587943 -1.298057,-2.866324 -2.910443,-2.866324 z" />
      <path
         id="path974"
         style="fill:#000000;fill-opacity:0.12;fill-rule:evenodd;stroke:none;stroke-width:0.307948;stroke-opacity:1"
         d="m 33.337525,19.579279 c -1.612384,0 -2.910442,1.27838 -2.910442,2.866322 v 0.286632 c 0,0 0.001,0.315041 0.227946,0.831343 0.0085,0.01939 0.01698,0.03878 0.02615,0.05872 0.0124,0.02719 0.02486,0.05438 0.03808,0.08114 0.0079,0.01625 0.01669,0.03272 0.02501,0.04929 0.345995,0.686811 1.069572,1.655089 2.586428,2.700611 v 0.005 c 0.0012,-8.6e-4 0.0023,-0.001 0.0034,-0.002 0.0012,8.6e-4 0.0023,10e-4 0.0034,0.002 v -0.005 c 1.423635,-0.978958 2.148356,-1.889785 2.518214,-2.565685 0.09402,-0.159389 0.172422,-0.328341 0.234201,-0.505519 0.0095,-0.0273 0.01916,-0.05471 0.02785,-0.08234 0.121473,-0.355754 0.123353,-0.567672 0.123353,-0.567672 h 0.0068 v -0.286632 c 0,-1.587942 -1.298057,-2.866322 -2.910443,-2.866322 z" />
      <path
         id="path976"
         style="fill:#7b7b7b;fill-opacity:1;fill-rule:evenodd;stroke:none;stroke-width:0.282088;stroke-opacity:1"
         d="m 33.3375,19.84375 c -1.465791,0 -2.645833,1.179978 -2.645833,2.64569 v 0.264569 c 0,0 9.5e-4,0.29079 0.207222,0.767353 0.0077,0.01788 0.01544,0.03586 0.02377,0.05426 0.01127,0.02514 0.0226,0.05022 0.03462,0.07493 0.0072,0.01495 0.01517,0.03022 0.02274,0.04548 0.314539,0.633928 0.97233,1.527688 2.351278,2.492733 v 0.005 c 0.0011,-7.9e-4 0.0021,-9.9e-4 0.0031,-0.002 0.0011,7.9e-4 0.0021,0.001 0.0031,0.002 v -0.005 c 1.294202,-0.903608 1.953033,-1.744326 2.289265,-2.3682 0.08547,-0.147119 0.156745,-0.303067 0.212908,-0.466613 0.0086,-0.02517 0.01742,-0.05046 0.02532,-0.07596 0.110429,-0.328364 0.112138,-0.52397 0.112138,-0.52397 h 0.0062 v -0.264569 c 0,-1.465712 -1.180042,-2.64569 -2.645834,-2.64569 z" />
    </g>
    <g
       id="slider-vert-scale-has-marks-above"
       transform="matrix(0,-0.95833393,-1,0,29.104191,67.281309)">
      <path
         id="path8192"
         style="fill:#000000;fill-opacity:0.0593788;fill-rule:evenodd;stroke:none;stroke-width:0.333783;stroke-opacity:1"
         d="m 33.072947,19.314719 c -1.758964,0 -3.175028,1.376717 -3.175028,3.086808 v 0.308681 c 0,0 0.0011,0.339275 0.248668,0.895292 0.0093,0.02088 0.01852,0.04176 0.02853,0.06324 0.01353,0.02928 0.02712,0.05856 0.04154,0.08739 0.0086,0.0175 0.01821,0.03524 0.02728,0.05308 0.377449,0.739643 1.166806,1.782407 2.821559,2.908347 v 0.0054 c 0.0013,-9.26e-4 0.0025,-0.0011 0.0037,-0.0022 0.0013,9.27e-4 0.0025,0.0011 0.0037,0.0022 v -0.0054 c 1.553057,-1.054255 2.343661,-2.035149 2.747143,-2.763041 0.102567,-0.171649 0.188097,-0.353599 0.255492,-0.544406 0.01036,-0.0294 0.0209,-0.05892 0.03038,-0.08867 0.132516,-0.383121 0.134567,-0.61134 0.134567,-0.61134 h 0.0074 v -0.30868 c 0,-1.710092 -1.416063,-3.086809 -3.175029,-3.086809 z" />
      <path
         id="path8194"
         style="fill:#000000;fill-opacity:0.08;fill-rule:evenodd;stroke:none;stroke-width:0.307948;stroke-opacity:1"
         d="m 33.072905,19.579297 c -1.612384,0 -2.910442,1.278381 -2.910442,2.866324 v 0.286632 c 0,0 0.001,0.315041 0.227946,0.831343 0.0085,0.01939 0.01698,0.03878 0.02615,0.05872 0.0124,0.02719 0.02486,0.05438 0.03808,0.08115 0.0079,0.01625 0.01669,0.03272 0.02501,0.04929 0.345995,0.686811 1.069572,1.655093 2.586428,2.700609 v 0.005 c 0.0012,-8.6e-4 0.0023,-0.001 0.0034,-0.002 0.0012,8.6e-4 0.0023,10e-4 0.0034,0.002 v -0.005 c 1.423635,-0.978951 2.148356,-1.889782 2.518214,-2.565682 0.09402,-0.159389 0.172422,-0.328342 0.234201,-0.50552 0.0095,-0.0273 0.01916,-0.05471 0.02785,-0.08234 0.121473,-0.355755 0.123353,-0.567673 0.123353,-0.567673 h 0.0068 v -0.286632 c 0,-1.587943 -1.298057,-2.866324 -2.910443,-2.866324 z" />
      <path
         id="path8196"
         style="fill:#000000;fill-opacity:0.12;fill-rule:evenodd;stroke:none;stroke-width:0.307948;stroke-opacity:1"
         d="m 33.337525,19.579279 c -1.612384,0 -2.910442,1.27838 -2.910442,2.866322 v 0.286632 c 0,0 0.001,0.315041 0.227946,0.831343 0.0085,0.01939 0.01698,0.03878 0.02615,0.05872 0.0124,0.02719 0.02486,0.05438 0.03808,0.08114 0.0079,0.01625 0.01669,0.03272 0.02501,0.04929 0.345995,0.686811 1.069572,1.655089 2.586428,2.700611 v 0.005 c 0.0012,-8.6e-4 0.0023,-0.001 0.0034,-0.002 0.0012,8.6e-4 0.0023,10e-4 0.0034,0.002 v -0.005 c 1.423635,-0.978958 2.148356,-1.889785 2.518214,-2.565685 0.09402,-0.159389 0.172422,-0.328341 0.234201,-0.505519 0.0095,-0.0273 0.01916,-0.05471 0.02785,-0.08234 0.121473,-0.355754 0.123353,-0.567672 0.123353,-0.567672 h 0.0068 v -0.286632 c 0,-1.587942 -1.298057,-2.866322 -2.910443,-2.866322 z" />
      <path
         id="path8198"
         style="fill:#ffffff;fill-opacity:1;fill-rule:evenodd;stroke:none;stroke-width:0.282088;stroke-opacity:1"
         d="m 33.3375,19.84375 c -1.465791,0 -2.645833,1.179978 -2.645833,2.64569 v 0.264569 c 0,0 9.5e-4,0.29079 0.207222,0.767353 0.0077,0.01788 0.01544,0.03586 0.02377,0.05426 0.01127,0.02514 0.0226,0.05022 0.03462,0.07493 0.0072,0.01495 0.01517,0.03022 0.02274,0.04548 0.314539,0.633928 0.97233,1.527688 2.351278,2.492733 v 0.005 c 0.0011,-7.9e-4 0.0021,-9.9e-4 0.0031,-0.002 0.0011,7.9e-4 0.0021,0.001 0.0031,0.002 v -0.005 c 1.294202,-0.903608 1.953033,-1.744326 2.289265,-2.3682 0.08547,-0.147119 0.156745,-0.303067 0.212908,-0.466613 0.0086,-0.02517 0.01742,-0.05046 0.02532,-0.07596 0.110429,-0.328364 0.112138,-0.52397 0.112138,-0.52397 h 0.0062 v -0.264569 c 0,-1.465712 -1.180042,-2.64569 -2.645834,-2.64569 z" />
    </g>
    <g
       id="slider-vert-scale-has-marks-above-insensitive"
       transform="matrix(0,-0.95833393,-1,0,37.570879,67.281309)">
      <path
         id="path8202"
         style="fill:#000000;fill-opacity:0;fill-rule:evenodd;stroke:none;stroke-width:0.333783;stroke-opacity:1"
         d="m 33.072947,19.314719 c -1.758964,0 -3.175028,1.376717 -3.175028,3.086808 v 0.308681 c 0,0 0.0011,0.339275 0.248668,0.895292 0.0093,0.02088 0.01852,0.04176 0.02853,0.06324 0.01353,0.02928 0.02712,0.05856 0.04154,0.08739 0.0086,0.0175 0.01821,0.03524 0.02728,0.05308 0.377449,0.739643 1.166806,1.782407 2.821559,2.908347 v 0.0054 c 0.0013,-9.26e-4 0.0025,-0.0011 0.0037,-0.0022 0.0013,9.27e-4 0.0025,0.0011 0.0037,0.0022 v -0.0054 c 1.553057,-1.054255 2.343661,-2.035149 2.747143,-2.763041 0.102567,-0.171649 0.188097,-0.353599 0.255492,-0.544406 0.01036,-0.0294 0.0209,-0.05892 0.03038,-0.08867 0.132516,-0.383121 0.134567,-0.61134 0.134567,-0.61134 h 0.0074 v -0.30868 c 0,-1.710092 -1.416063,-3.086809 -3.175029,-3.086809 z" />
      <path
         id="path8204"
         style="fill:#000000;fill-opacity:0;fill-rule:evenodd;stroke:none;stroke-width:0.307948;stroke-opacity:1"
         d="m 33.072905,19.579297 c -1.612384,0 -2.910442,1.278381 -2.910442,2.866324 v 0.286632 c 0,0 0.001,0.315041 0.227946,0.831343 0.0085,0.01939 0.01698,0.03878 0.02615,0.05872 0.0124,0.02719 0.02486,0.05438 0.03808,0.08115 0.0079,0.01625 0.01669,0.03272 0.02501,0.04929 0.345995,0.686811 1.069572,1.655093 2.586428,2.700609 v 0.005 c 0.0012,-8.6e-4 0.0023,-0.001 0.0034,-0.002 0.0012,8.6e-4 0.0023,10e-4 0.0034,0.002 v -0.005 c 1.423635,-0.978951 2.148356,-1.889782 2.518214,-2.565682 0.09402,-0.159389 0.172422,-0.328342 0.234201,-0.50552 0.0095,-0.0273 0.01916,-0.05471 0.02785,-0.08234 0.121473,-0.355755 0.123353,-0.567673 0.123353,-0.567673 h 0.0068 v -0.286632 c 0,-1.587943 -1.298057,-2.866324 -2.910443,-2.866324 z" />
      <path
         id="path8206"
         style="fill:#000000;fill-opacity:0.12;fill-rule:evenodd;stroke:none;stroke-width:0.307948;stroke-opacity:1"
         d="m 33.337525,19.579279 c -1.612384,0 -2.910442,1.27838 -2.910442,2.866322 v 0.286632 c 0,0 0.001,0.315041 0.227946,0.831343 0.0085,0.01939 0.01698,0.03878 0.02615,0.05872 0.0124,0.02719 0.02486,0.05438 0.03808,0.08114 0.0079,0.01625 0.01669,0.03272 0.02501,0.04929 0.345995,0.686811 1.069572,1.655089 2.586428,2.700611 v 0.005 c 0.0012,-8.6e-4 0.0023,-0.001 0.0034,-0.002 0.0012,8.6e-4 0.0023,10e-4 0.0034,0.002 v -0.005 c 1.423635,-0.978958 2.148356,-1.889785 2.518214,-2.565685 0.09402,-0.159389 0.172422,-0.328341 0.234201,-0.505519 0.0095,-0.0273 0.01916,-0.05471 0.02785,-0.08234 0.121473,-0.355754 0.123353,-0.567672 0.123353,-0.567672 h 0.0068 v -0.286632 c 0,-1.587942 -1.298057,-2.866322 -2.910443,-2.866322 z" />
      <path
         id="path8208"
         style="fill:#fdfdfd;fill-opacity:1;fill-rule:evenodd;stroke:none;stroke-width:0.282088;stroke-opacity:1"
         d="m 33.3375,19.84375 c -1.465791,0 -2.645833,1.179978 -2.645833,2.64569 v 0.264569 c 0,0 9.5e-4,0.29079 0.207222,0.767353 0.0077,0.01788 0.01544,0.03586 0.02377,0.05426 0.01127,0.02514 0.0226,0.05022 0.03462,0.07493 0.0072,0.01495 0.01517,0.03022 0.02274,0.04548 0.314539,0.633928 0.97233,1.527688 2.351278,2.492733 v 0.005 c 0.0011,-7.9e-4 0.0021,-9.9e-4 0.0031,-0.002 0.0011,7.9e-4 0.0021,0.001 0.0031,0.002 v -0.005 c 1.294202,-0.903608 1.953033,-1.744326 2.289265,-2.3682 0.08547,-0.147119 0.156745,-0.303067 0.212908,-0.466613 0.0086,-0.02517 0.01742,-0.05046 0.02532,-0.07596 0.110429,-0.328364 0.112138,-0.52397 0.112138,-0.52397 h 0.0062 v -0.264569 c 0,-1.465712 -1.180042,-2.64569 -2.645834,-2.64569 z" />
    </g>
    <g
       id="slider-vert-scale-has-marks-above-dark"
       transform="matrix(0,-0.95833393,-1,0,55.033374,67.281309)">
      <path
         id="path8232"
         style="fill:#000000;fill-opacity:0.0593788;fill-rule:evenodd;stroke:none;stroke-width:0.333783;stroke-opacity:1"
         d="m 33.072947,19.314719 c -1.758964,0 -3.175028,1.376717 -3.175028,3.086808 v 0.308681 c 0,0 0.0011,0.339275 0.248668,0.895292 0.0093,0.02088 0.01852,0.04176 0.02853,0.06324 0.01353,0.02928 0.02712,0.05856 0.04154,0.08739 0.0086,0.0175 0.01821,0.03524 0.02728,0.05308 0.377449,0.739643 1.166806,1.782407 2.821559,2.908347 v 0.0054 c 0.0013,-9.26e-4 0.0025,-0.0011 0.0037,-0.0022 0.0013,9.27e-4 0.0025,0.0011 0.0037,0.0022 v -0.0054 c 1.553057,-1.054255 2.343661,-2.035149 2.747143,-2.763041 0.102567,-0.171649 0.188097,-0.353599 0.255492,-0.544406 0.01036,-0.0294 0.0209,-0.05892 0.03038,-0.08867 0.132516,-0.383121 0.134567,-0.61134 0.134567,-0.61134 h 0.0074 v -0.30868 c 0,-1.710092 -1.416063,-3.086809 -3.175029,-3.086809 z" />
      <path
         id="path8234"
         style="fill:#000000;fill-opacity:0.08;fill-rule:evenodd;stroke:none;stroke-width:0.307948;stroke-opacity:1"
         d="m 33.072905,19.579297 c -1.612384,0 -2.910442,1.278381 -2.910442,2.866324 v 0.286632 c 0,0 0.001,0.315041 0.227946,0.831343 0.0085,0.01939 0.01698,0.03878 0.02615,0.05872 0.0124,0.02719 0.02486,0.05438 0.03808,0.08115 0.0079,0.01625 0.01669,0.03272 0.02501,0.04929 0.345995,0.686811 1.069572,1.655093 2.586428,2.700609 v 0.005 c 0.0012,-8.6e-4 0.0023,-0.001 0.0034,-0.002 0.0012,8.6e-4 0.0023,10e-4 0.0034,0.002 v -0.005 c 1.423635,-0.978951 2.148356,-1.889782 2.518214,-2.565682 0.09402,-0.159389 0.172422,-0.328342 0.234201,-0.50552 0.0095,-0.0273 0.01916,-0.05471 0.02785,-0.08234 0.121473,-0.355755 0.123353,-0.567673 0.123353,-0.567673 h 0.0068 v -0.286632 c 0,-1.587943 -1.298057,-2.866324 -2.910443,-2.866324 z" />
      <path
         id="path8236"
         style="fill:#000000;fill-opacity:0.12;fill-rule:evenodd;stroke:none;stroke-width:0.307948;stroke-opacity:1"
         d="m 33.337525,19.579279 c -1.612384,0 -2.910442,1.27838 -2.910442,2.866322 v 0.286632 c 0,0 0.001,0.315041 0.227946,0.831343 0.0085,0.01939 0.01698,0.03878 0.02615,0.05872 0.0124,0.02719 0.02486,0.05438 0.03808,0.08114 0.0079,0.01625 0.01669,0.03272 0.02501,0.04929 0.345995,0.686811 1.069572,1.655089 2.586428,2.700611 v 0.005 c 0.0012,-8.6e-4 0.0023,-0.001 0.0034,-0.002 0.0012,8.6e-4 0.0023,10e-4 0.0034,0.002 v -0.005 c 1.423635,-0.978958 2.148356,-1.889785 2.518214,-2.565685 0.09402,-0.159389 0.172422,-0.328341 0.234201,-0.505519 0.0095,-0.0273 0.01916,-0.05471 0.02785,-0.08234 0.121473,-0.355754 0.123353,-0.567672 0.123353,-0.567672 h 0.0068 v -0.286632 c 0,-1.587942 -1.298057,-2.866322 -2.910443,-2.866322 z" />
      <path
         id="path8238"
         style="fill:#d2d2d2;fill-opacity:1;fill-rule:evenodd;stroke:none;stroke-width:0.282088;stroke-opacity:1"
         d="m 33.3375,19.84375 c -1.465791,0 -2.645833,1.179978 -2.645833,2.64569 v 0.264569 c 0,0 9.5e-4,0.29079 0.207222,0.767353 0.0077,0.01788 0.01544,0.03586 0.02377,0.05426 0.01127,0.02514 0.0226,0.05022 0.03462,0.07493 0.0072,0.01495 0.01517,0.03022 0.02274,0.04548 0.314539,0.633928 0.97233,1.527688 2.351278,2.492733 v 0.005 c 0.0011,-7.9e-4 0.0021,-9.9e-4 0.0031,-0.002 0.0011,7.9e-4 0.0021,0.001 0.0031,0.002 v -0.005 c 1.294202,-0.903608 1.953033,-1.744326 2.289265,-2.3682 0.08547,-0.147119 0.156745,-0.303067 0.212908,-0.466613 0.0086,-0.02517 0.01742,-0.05046 0.02532,-0.07596 0.110429,-0.328364 0.112138,-0.52397 0.112138,-0.52397 h 0.0062 v -0.264569 c 0,-1.465712 -1.180042,-2.64569 -2.645834,-2.64569 z" />
    </g>
    <g
       id="slider-vert-scale-has-marks-above-insensitive-dark"
       transform="matrix(0,-0.95833393,-1,0,63.500062,67.281309)">
      <path
         id="path8242"
         style="fill:#000000;fill-opacity:0;fill-rule:evenodd;stroke:none;stroke-width:0.333783;stroke-opacity:1"
         d="m 33.072947,19.314719 c -1.758964,0 -3.175028,1.376717 -3.175028,3.086808 v 0.308681 c 0,0 0.0011,0.339275 0.248668,0.895292 0.0093,0.02088 0.01852,0.04176 0.02853,0.06324 0.01353,0.02928 0.02712,0.05856 0.04154,0.08739 0.0086,0.0175 0.01821,0.03524 0.02728,0.05308 0.377449,0.739643 1.166806,1.782407 2.821559,2.908347 v 0.0054 c 0.0013,-9.26e-4 0.0025,-0.0011 0.0037,-0.0022 0.0013,9.27e-4 0.0025,0.0011 0.0037,0.0022 v -0.0054 c 1.553057,-1.054255 2.343661,-2.035149 2.747143,-2.763041 0.102567,-0.171649 0.188097,-0.353599 0.255492,-0.544406 0.01036,-0.0294 0.0209,-0.05892 0.03038,-0.08867 0.132516,-0.383121 0.134567,-0.61134 0.134567,-0.61134 h 0.0074 v -0.30868 c 0,-1.710092 -1.416063,-3.086809 -3.175029,-3.086809 z" />
      <path
         id="path8244"
         style="fill:#000000;fill-opacity:0;fill-rule:evenodd;stroke:none;stroke-width:0.307948;stroke-opacity:1"
         d="m 33.072905,19.579297 c -1.612384,0 -2.910442,1.278381 -2.910442,2.866324 v 0.286632 c 0,0 0.001,0.315041 0.227946,0.831343 0.0085,0.01939 0.01698,0.03878 0.02615,0.05872 0.0124,0.02719 0.02486,0.05438 0.03808,0.08115 0.0079,0.01625 0.01669,0.03272 0.02501,0.04929 0.345995,0.686811 1.069572,1.655093 2.586428,2.700609 v 0.005 c 0.0012,-8.6e-4 0.0023,-0.001 0.0034,-0.002 0.0012,8.6e-4 0.0023,10e-4 0.0034,0.002 v -0.005 c 1.423635,-0.978951 2.148356,-1.889782 2.518214,-2.565682 0.09402,-0.159389 0.172422,-0.328342 0.234201,-0.50552 0.0095,-0.0273 0.01916,-0.05471 0.02785,-0.08234 0.121473,-0.355755 0.123353,-0.567673 0.123353,-0.567673 h 0.0068 v -0.286632 c 0,-1.587943 -1.298057,-2.866324 -2.910443,-2.866324 z" />
      <path
         id="path8246"
         style="fill:#000000;fill-opacity:0.12;fill-rule:evenodd;stroke:none;stroke-width:0.307948;stroke-opacity:1"
         d="m 33.337525,19.579279 c -1.612384,0 -2.910442,1.27838 -2.910442,2.866322 v 0.286632 c 0,0 0.001,0.315041 0.227946,0.831343 0.0085,0.01939 0.01698,0.03878 0.02615,0.05872 0.0124,0.02719 0.02486,0.05438 0.03808,0.08114 0.0079,0.01625 0.01669,0.03272 0.02501,0.04929 0.345995,0.686811 1.069572,1.655089 2.586428,2.700611 v 0.005 c 0.0012,-8.6e-4 0.0023,-0.001 0.0034,-0.002 0.0012,8.6e-4 0.0023,10e-4 0.0034,0.002 v -0.005 c 1.423635,-0.978958 2.148356,-1.889785 2.518214,-2.565685 0.09402,-0.159389 0.172422,-0.328341 0.234201,-0.505519 0.0095,-0.0273 0.01916,-0.05471 0.02785,-0.08234 0.121473,-0.355754 0.123353,-0.567672 0.123353,-0.567672 h 0.0068 v -0.286632 c 0,-1.587942 -1.298057,-2.866322 -2.910443,-2.866322 z" />
      <path
         id="path8248"
         style="fill:#7b7b7b;fill-opacity:1;fill-rule:evenodd;stroke:none;stroke-width:0.282088;stroke-opacity:1"
         d="m 33.3375,19.84375 c -1.465791,0 -2.645833,1.179978 -2.645833,2.64569 v 0.264569 c 0,0 9.5e-4,0.29079 0.207222,0.767353 0.0077,0.01788 0.01544,0.03586 0.02377,0.05426 0.01127,0.02514 0.0226,0.05022 0.03462,0.07493 0.0072,0.01495 0.01517,0.03022 0.02274,0.04548 0.314539,0.633928 0.97233,1.527688 2.351278,2.492733 v 0.005 c 0.0011,-7.9e-4 0.0021,-9.9e-4 0.0031,-0.002 0.0011,7.9e-4 0.0021,0.001 0.0031,0.002 v -0.005 c 1.294202,-0.903608 1.953033,-1.744326 2.289265,-2.3682 0.08547,-0.147119 0.156745,-0.303067 0.212908,-0.466613 0.0086,-0.02517 0.01742,-0.05046 0.02532,-0.07596 0.110429,-0.328364 0.112138,-0.52397 0.112138,-0.52397 h 0.0062 v -0.264569 c 0,-1.465712 -1.180042,-2.64569 -2.645834,-2.64569 z" />
    </g>
    <g
       id="text-select-start"
       transform="matrix(0.70137062,0.68702452,0.70137062,-0.68702452,-33.418264,37.523552)">
      <path
         id="path16006"
         style="fill:#000000;fill-opacity:0.0593788;fill-rule:evenodd;stroke:none;stroke-width:0.337167;stroke-opacity:1"
         d="m 33.625246,19.139652 c -1.776886,0.01793 -3.221413,1.42311 -3.238845,3.150625 l -0.0031,0.311826 c 0,0 -0.0023,0.34272 0.242075,0.901879 0.0092,0.021 0.01828,0.042 0.02818,0.06359 0.01337,0.02944 0.0268,0.05888 0.04107,0.08786 0.0085,0.01759 0.01804,0.03541 0.02702,0.05334 0.373755,0.743332 1.160524,1.788674 2.820661,2.909217 l -5.5e-5,0.0055 c 0.0013,-9.48e-4 0.0025,-0.0011 0.0038,-0.0023 0.0013,9.23e-4 0.0025,0.0011 0.0037,0.0022 l 5.5e-5,-0.0055 c 1.579627,-1.080828 2.388286,-2.079775 2.8033,-2.819198 0.105361,-0.174442 0.193617,-0.359118 0.263644,-0.552557 0.01077,-0.0298 0.02171,-0.05973 0.03159,-0.08988 0.137772,-0.388375 0.142171,-0.618941 0.142171,-0.618941 l 0.0075,-7.5e-5 0.0031,-0.311825 c 0.01743,-1.727516 -1.399025,-3.103825 -3.175912,-3.085894 z" />
      <path
         id="path16008"
         style="fill:#000000;fill-opacity:0.08;fill-rule:evenodd;stroke:none;stroke-width:0.308781;stroke-opacity:1"
         d="m 33.62267,19.387331 c -1.616829,0.01631 -2.931398,1.311351 -2.947464,2.903671 l -0.0029,0.287423 c 0,0 -0.0022,0.315898 0.220162,0.831327 0.0083,0.01936 0.01663,0.03871 0.02563,0.05862 0.01216,0.02713 0.02438,0.05428 0.03736,0.08099 0.0077,0.01621 0.01641,0.03264 0.02458,0.04918 0.34,0.685203 1.055777,1.648835 2.566236,2.681887 l -5e-5,0.005 c 0.0012,-8.75e-4 0.0023,-0.001 0.0034,-0.002 0.0012,8.5e-4 0.0023,9.8e-4 0.0034,0.002 l 5e-5,-0.005 c 1.437464,-0.996053 2.173398,-1.916726 2.551114,-2.598232 0.09589,-0.160779 0.176219,-0.330991 0.23996,-0.509283 0.0098,-0.02747 0.01977,-0.05506 0.02876,-0.08285 0.125407,-0.357964 0.129437,-0.570486 0.129437,-0.570486 l 0.0068,-6.8e-5 0.0029,-0.287422 c 0.01601,-1.592349 -1.272689,-2.861122 -2.889519,-2.844809 z" />
      <path
         id="path16010"
         style="fill:#000000;fill-opacity:0.12;fill-rule:evenodd;stroke:none;stroke-width:0.308782;stroke-opacity:1"
         d="m 33.430109,19.579895 c -1.616831,0.01631 -2.931401,1.311349 -2.947466,2.90367 l -0.0029,0.287422 c 0,0 -0.0022,0.315899 0.220165,0.83133 0.0083,0.01936 0.01663,0.03871 0.02563,0.05862 0.01215,0.02714 0.02438,0.05428 0.03736,0.08098 0.0077,0.01621 0.01641,0.03264 0.02458,0.04918 0.340001,0.685205 1.055778,1.648833 2.56624,2.681893 l -5e-5,0.005 c 0.0012,-8.74e-4 0.0023,-10e-4 0.0034,-0.002 0.0012,8.49e-4 0.0023,9.79e-4 0.0034,0.002 l 5.1e-5,-0.005 c 1.437464,-0.996059 2.173399,-1.91673 2.551114,-2.598235 0.09589,-0.160781 0.176219,-0.330992 0.239961,-0.509283 0.0098,-0.02747 0.01977,-0.05506 0.02876,-0.08285 0.125407,-0.357964 0.129436,-0.570487 0.129436,-0.570487 l 0.0068,-6.7e-5 0.0029,-0.287423 c 0.01606,-1.592321 -1.272638,-2.861095 -2.889472,-2.844783 z" />
      <path
         id="path16012"
         style="fill:#ffffff;fill-opacity:1;fill-rule:evenodd;stroke:none;stroke-width:0.280359;stroke-opacity:1"
         d="m 33.427574,19.82803 c -1.456882,0.01471 -2.641589,1.19935 -2.656294,2.656153 l -0.0027,0.262962 c 0,0 -0.002,0.289012 0.198265,0.76061 0.0075,0.01769 0.01499,0.03549 0.02308,0.05369 0.01095,0.02488 0.02196,0.04968 0.03366,0.07413 0.007,0.01479 0.01477,0.02988 0.02215,0.04497 0.306267,0.62692 0.951094,1.508648 2.311979,2.453994 l -5e-5,0.005 c 0.0011,-7.97e-4 0.0021,-10e-4 0.0031,-0.002 0.0011,7.74e-4 0.0021,9.72e-4 0.0031,0.002 l 4.9e-5,-0.005 c 1.295401,-0.911099 1.958662,-1.753317 2.299109,-2.376772 0.08643,-0.147084 0.158832,-0.302798 0.216295,-0.465914 0.0088,-0.02511 0.01782,-0.05032 0.02593,-0.07575 0.113053,-0.327476 0.116713,-0.521909 0.116713,-0.521909 l 0.0061,-6.2e-5 0.0027,-0.262962 c 0.01471,-1.456803 -1.146327,-2.617771 -2.60321,-2.603066 z" />
    </g>
    <g
       id="text-select-start-dark"
       transform="matrix(0.70137062,0.68702452,0.70137062,-0.68702452,-7.4890825,37.523552)">
      <path
         id="path27967"
         style="fill:#000000;fill-opacity:0.0593788;fill-rule:evenodd;stroke:none;stroke-width:0.337167;stroke-opacity:1"
         d="m 33.625246,19.139652 c -1.776886,0.01793 -3.221413,1.42311 -3.238845,3.150625 l -0.0031,0.311826 c 0,0 -0.0023,0.34272 0.242075,0.901879 0.0092,0.021 0.01828,0.042 0.02818,0.06359 0.01337,0.02944 0.0268,0.05888 0.04107,0.08786 0.0085,0.01759 0.01804,0.03541 0.02702,0.05334 0.373755,0.743332 1.160524,1.788674 2.820661,2.909217 l -5.5e-5,0.0055 c 0.0013,-9.48e-4 0.0025,-0.0011 0.0038,-0.0023 0.0013,9.23e-4 0.0025,0.0011 0.0037,0.0022 l 5.5e-5,-0.0055 c 1.579627,-1.080828 2.388286,-2.079775 2.8033,-2.819198 0.105361,-0.174442 0.193617,-0.359118 0.263644,-0.552557 0.01077,-0.0298 0.02171,-0.05973 0.03159,-0.08988 0.137772,-0.388375 0.142171,-0.618941 0.142171,-0.618941 l 0.0075,-7.5e-5 0.0031,-0.311825 c 0.01743,-1.727516 -1.399025,-3.103825 -3.175912,-3.085894 z" />
      <path
         id="path27969"
         style="fill:#000000;fill-opacity:0.08;fill-rule:evenodd;stroke:none;stroke-width:0.308781;stroke-opacity:1"
         d="m 33.62267,19.387331 c -1.616829,0.01631 -2.931398,1.311351 -2.947464,2.903671 l -0.0029,0.287423 c 0,0 -0.0022,0.315898 0.220162,0.831327 0.0083,0.01936 0.01663,0.03871 0.02563,0.05862 0.01216,0.02713 0.02438,0.05428 0.03736,0.08099 0.0077,0.01621 0.01641,0.03264 0.02458,0.04918 0.34,0.685203 1.055777,1.648835 2.566236,2.681887 l -5e-5,0.005 c 0.0012,-8.75e-4 0.0023,-0.001 0.0034,-0.002 0.0012,8.5e-4 0.0023,9.8e-4 0.0034,0.002 l 5e-5,-0.005 c 1.437464,-0.996053 2.173398,-1.916726 2.551114,-2.598232 0.09589,-0.160779 0.176219,-0.330991 0.23996,-0.509283 0.0098,-0.02747 0.01977,-0.05506 0.02876,-0.08285 0.125407,-0.357964 0.129437,-0.570486 0.129437,-0.570486 l 0.0068,-6.8e-5 0.0029,-0.287422 c 0.01601,-1.592349 -1.272689,-2.861122 -2.889519,-2.844809 z" />
      <path
         id="path27971"
         style="fill:#000000;fill-opacity:0.12;fill-rule:evenodd;stroke:none;stroke-width:0.308782;stroke-opacity:1"
         d="m 33.430109,19.579895 c -1.616831,0.01631 -2.931401,1.311349 -2.947466,2.90367 l -0.0029,0.287422 c 0,0 -0.0022,0.315899 0.220165,0.83133 0.0083,0.01936 0.01663,0.03871 0.02563,0.05862 0.01215,0.02714 0.02438,0.05428 0.03736,0.08098 0.0077,0.01621 0.01641,0.03264 0.02458,0.04918 0.340001,0.685205 1.055778,1.648833 2.56624,2.681893 l -5e-5,0.005 c 0.0012,-8.74e-4 0.0023,-10e-4 0.0034,-0.002 0.0012,8.49e-4 0.0023,9.79e-4 0.0034,0.002 l 5.1e-5,-0.005 c 1.437464,-0.996059 2.173399,-1.91673 2.551114,-2.598235 0.09589,-0.160781 0.176219,-0.330992 0.239961,-0.509283 0.0098,-0.02747 0.01977,-0.05506 0.02876,-0.08285 0.125407,-0.357964 0.129436,-0.570487 0.129436,-0.570487 l 0.0068,-6.7e-5 0.0029,-0.287423 c 0.01606,-1.592321 -1.272638,-2.861095 -2.889472,-2.844783 z" />
      <path
         id="path27973"
         style="fill:#d2d2d2;fill-opacity:1;fill-rule:evenodd;stroke:none;stroke-width:0.280359;stroke-opacity:1"
         d="m 33.427574,19.82803 c -1.456882,0.01471 -2.641589,1.19935 -2.656294,2.656153 l -0.0027,0.262962 c 0,0 -0.002,0.289012 0.198265,0.76061 0.0075,0.01769 0.01499,0.03549 0.02308,0.05369 0.01095,0.02488 0.02196,0.04968 0.03366,0.07413 0.007,0.01479 0.01477,0.02988 0.02215,0.04497 0.306267,0.62692 0.951094,1.508648 2.311979,2.453994 l -5e-5,0.005 c 0.0011,-7.97e-4 0.0021,-10e-4 0.0031,-0.002 0.0011,7.74e-4 0.0021,9.72e-4 0.0031,0.002 l 4.9e-5,-0.005 c 1.295401,-0.911099 1.958662,-1.753317 2.299109,-2.376772 0.08643,-0.147084 0.158832,-0.302798 0.216295,-0.465914 0.0088,-0.02511 0.01782,-0.05032 0.02593,-0.07575 0.113053,-0.327476 0.116713,-0.521909 0.116713,-0.521909 l 0.0061,-6.2e-5 0.0027,-0.262962 c 0.01471,-1.456803 -1.146327,-2.617771 -2.60321,-2.603066 z" />
    </g>
    <g
       id="text-select-end"
       transform="matrix(-0.70137062,0.68702452,-0.70137062,-0.68702452,54.055773,37.523552)">
      <path
         id="path34529"
         style="fill:#000000;fill-opacity:0.0593788;fill-rule:evenodd;stroke:none;stroke-width:0.337167;stroke-opacity:1"
         d="m 33.625246,19.139652 c -1.776886,0.01793 -3.221413,1.42311 -3.238845,3.150625 l -0.0031,0.311826 c 0,0 -0.0023,0.34272 0.242075,0.901879 0.0092,0.021 0.01828,0.042 0.02818,0.06359 0.01337,0.02944 0.0268,0.05888 0.04107,0.08786 0.0085,0.01759 0.01804,0.03541 0.02702,0.05334 0.373755,0.743332 1.160524,1.788674 2.820661,2.909217 l -5.5e-5,0.0055 c 0.0013,-9.48e-4 0.0025,-0.0011 0.0038,-0.0023 0.0013,9.23e-4 0.0025,0.0011 0.0037,0.0022 l 5.5e-5,-0.0055 c 1.579627,-1.080828 2.388286,-2.079775 2.8033,-2.819198 0.105361,-0.174442 0.193617,-0.359118 0.263644,-0.552557 0.01077,-0.0298 0.02171,-0.05973 0.03159,-0.08988 0.137772,-0.388375 0.142171,-0.618941 0.142171,-0.618941 l 0.0075,-7.5e-5 0.0031,-0.311825 c 0.01743,-1.727516 -1.399025,-3.103825 -3.175912,-3.085894 z" />
      <path
         id="path34531"
         style="fill:#000000;fill-opacity:0.08;fill-rule:evenodd;stroke:none;stroke-width:0.308781;stroke-opacity:1"
         d="m 33.62267,19.387331 c -1.616829,0.01631 -2.931398,1.311351 -2.947464,2.903671 l -0.0029,0.287423 c 0,0 -0.0022,0.315898 0.220162,0.831327 0.0083,0.01936 0.01663,0.03871 0.02563,0.05862 0.01216,0.02713 0.02438,0.05428 0.03736,0.08099 0.0077,0.01621 0.01641,0.03264 0.02458,0.04918 0.34,0.685203 1.055777,1.648835 2.566236,2.681887 l -5e-5,0.005 c 0.0012,-8.75e-4 0.0023,-0.001 0.0034,-0.002 0.0012,8.5e-4 0.0023,9.8e-4 0.0034,0.002 l 5e-5,-0.005 c 1.437464,-0.996053 2.173398,-1.916726 2.551114,-2.598232 0.09589,-0.160779 0.176219,-0.330991 0.23996,-0.509283 0.0098,-0.02747 0.01977,-0.05506 0.02876,-0.08285 0.125407,-0.357964 0.129437,-0.570486 0.129437,-0.570486 l 0.0068,-6.8e-5 0.0029,-0.287422 c 0.01601,-1.592349 -1.272689,-2.861122 -2.889519,-2.844809 z" />
      <path
         id="path34533"
         style="fill:#000000;fill-opacity:0.12;fill-rule:evenodd;stroke:none;stroke-width:0.308782;stroke-opacity:1"
         d="m 33.430109,19.579895 c -1.616831,0.01631 -2.931401,1.311349 -2.947466,2.90367 l -0.0029,0.287422 c 0,0 -0.0022,0.315899 0.220165,0.83133 0.0083,0.01936 0.01663,0.03871 0.02563,0.05862 0.01215,0.02714 0.02438,0.05428 0.03736,0.08098 0.0077,0.01621 0.01641,0.03264 0.02458,0.04918 0.340001,0.685205 1.055778,1.648833 2.56624,2.681893 l -5e-5,0.005 c 0.0012,-8.74e-4 0.0023,-10e-4 0.0034,-0.002 0.0012,8.49e-4 0.0023,9.79e-4 0.0034,0.002 l 5.1e-5,-0.005 c 1.437464,-0.996059 2.173399,-1.91673 2.551114,-2.598235 0.09589,-0.160781 0.176219,-0.330992 0.239961,-0.509283 0.0098,-0.02747 0.01977,-0.05506 0.02876,-0.08285 0.125407,-0.357964 0.129436,-0.570487 0.129436,-0.570487 l 0.0068,-6.7e-5 0.0029,-0.287423 c 0.01606,-1.592321 -1.272638,-2.861095 -2.889472,-2.844783 z" />
      <path
         id="path34535"
         style="fill:#ffffff;fill-opacity:1;fill-rule:evenodd;stroke:none;stroke-width:0.280359;stroke-opacity:1"
         d="m 33.427574,19.82803 c -1.456882,0.01471 -2.641589,1.19935 -2.656294,2.656153 l -0.0027,0.262962 c 0,0 -0.002,0.289012 0.198265,0.76061 0.0075,0.01769 0.01499,0.03549 0.02308,0.05369 0.01095,0.02488 0.02196,0.04968 0.03366,0.07413 0.007,0.01479 0.01477,0.02988 0.02215,0.04497 0.306267,0.62692 0.951094,1.508648 2.311979,2.453994 l -5e-5,0.005 c 0.0011,-7.97e-4 0.0021,-10e-4 0.0031,-0.002 0.0011,7.74e-4 0.0021,9.72e-4 0.0031,0.002 l 4.9e-5,-0.005 c 1.295401,-0.911099 1.958662,-1.753317 2.299109,-2.376772 0.08643,-0.147084 0.158832,-0.302798 0.216295,-0.465914 0.0088,-0.02511 0.01782,-0.05032 0.02593,-0.07575 0.113053,-0.327476 0.116713,-0.521909 0.116713,-0.521909 l 0.0061,-6.2e-5 0.0027,-0.262962 c 0.01471,-1.456803 -1.146327,-2.617771 -2.60321,-2.603066 z" />
    </g>
    <g
       id="text-select-end-dark"
       transform="matrix(-0.70137062,0.68702452,-0.70137062,-0.68702452,79.455789,37.523552)">
      <path
         id="path34549"
         style="fill:#000000;fill-opacity:0.0593788;fill-rule:evenodd;stroke:none;stroke-width:0.337167;stroke-opacity:1"
         d="m 33.625246,19.139652 c -1.776886,0.01793 -3.221413,1.42311 -3.238845,3.150625 l -0.0031,0.311826 c 0,0 -0.0023,0.34272 0.242075,0.901879 0.0092,0.021 0.01828,0.042 0.02818,0.06359 0.01337,0.02944 0.0268,0.05888 0.04107,0.08786 0.0085,0.01759 0.01804,0.03541 0.02702,0.05334 0.373755,0.743332 1.160524,1.788674 2.820661,2.909217 l -5.5e-5,0.0055 c 0.0013,-9.48e-4 0.0025,-0.0011 0.0038,-0.0023 0.0013,9.23e-4 0.0025,0.0011 0.0037,0.0022 l 5.5e-5,-0.0055 c 1.579627,-1.080828 2.388286,-2.079775 2.8033,-2.819198 0.105361,-0.174442 0.193617,-0.359118 0.263644,-0.552557 0.01077,-0.0298 0.02171,-0.05973 0.03159,-0.08988 0.137772,-0.388375 0.142171,-0.618941 0.142171,-0.618941 l 0.0075,-7.5e-5 0.0031,-0.311825 c 0.01743,-1.727516 -1.399025,-3.103825 -3.175912,-3.085894 z" />
      <path
         id="path34551"
         style="fill:#000000;fill-opacity:0.08;fill-rule:evenodd;stroke:none;stroke-width:0.308781;stroke-opacity:1"
         d="m 33.62267,19.387331 c -1.616829,0.01631 -2.931398,1.311351 -2.947464,2.903671 l -0.0029,0.287423 c 0,0 -0.0022,0.315898 0.220162,0.831327 0.0083,0.01936 0.01663,0.03871 0.02563,0.05862 0.01216,0.02713 0.02438,0.05428 0.03736,0.08099 0.0077,0.01621 0.01641,0.03264 0.02458,0.04918 0.34,0.685203 1.055777,1.648835 2.566236,2.681887 l -5e-5,0.005 c 0.0012,-8.75e-4 0.0023,-0.001 0.0034,-0.002 0.0012,8.5e-4 0.0023,9.8e-4 0.0034,0.002 l 5e-5,-0.005 c 1.437464,-0.996053 2.173398,-1.916726 2.551114,-2.598232 0.09589,-0.160779 0.176219,-0.330991 0.23996,-0.509283 0.0098,-0.02747 0.01977,-0.05506 0.02876,-0.08285 0.125407,-0.357964 0.129437,-0.570486 0.129437,-0.570486 l 0.0068,-6.8e-5 0.0029,-0.287422 c 0.01601,-1.592349 -1.272689,-2.861122 -2.889519,-2.844809 z" />
      <path
         id="path34553"
         style="fill:#000000;fill-opacity:0.12;fill-rule:evenodd;stroke:none;stroke-width:0.308782;stroke-opacity:1"
         d="m 33.430109,19.579895 c -1.616831,0.01631 -2.931401,1.311349 -2.947466,2.90367 l -0.0029,0.287422 c 0,0 -0.0022,0.315899 0.220165,0.83133 0.0083,0.01936 0.01663,0.03871 0.02563,0.05862 0.01215,0.02714 0.02438,0.05428 0.03736,0.08098 0.0077,0.01621 0.01641,0.03264 0.02458,0.04918 0.340001,0.685205 1.055778,1.648833 2.56624,2.681893 l -5e-5,0.005 c 0.0012,-8.74e-4 0.0023,-10e-4 0.0034,-0.002 0.0012,8.49e-4 0.0023,9.79e-4 0.0034,0.002 l 5.1e-5,-0.005 c 1.437464,-0.996059 2.173399,-1.91673 2.551114,-2.598235 0.09589,-0.160781 0.176219,-0.330992 0.239961,-0.509283 0.0098,-0.02747 0.01977,-0.05506 0.02876,-0.08285 0.125407,-0.357964 0.129436,-0.570487 0.129436,-0.570487 l 0.0068,-6.7e-5 0.0029,-0.287423 c 0.01606,-1.592321 -1.272638,-2.861095 -2.889472,-2.844783 z" />
      <path
         id="path34555"
         style="fill:#d2d2d2;fill-opacity:1;fill-rule:evenodd;stroke:none;stroke-width:0.280359;stroke-opacity:1"
         d="m 33.427574,19.82803 c -1.456882,0.01471 -2.641589,1.19935 -2.656294,2.656153 l -0.0027,0.262962 c 0,0 -0.002,0.289012 0.198265,0.76061 0.0075,0.01769 0.01499,0.03549 0.02308,0.05369 0.01095,0.02488 0.02196,0.04968 0.03366,0.07413 0.007,0.01479 0.01477,0.02988 0.02215,0.04497 0.306267,0.62692 0.951094,1.508648 2.311979,2.453994 l -5e-5,0.005 c 0.0011,-7.97e-4 0.0021,-10e-4 0.0031,-0.002 0.0011,7.74e-4 0.0021,9.72e-4 0.0031,0.002 l 4.9e-5,-0.005 c 1.295401,-0.911099 1.958662,-1.753317 2.299109,-2.376772 0.08643,-0.147084 0.158832,-0.302798 0.216295,-0.465914 0.0088,-0.02511 0.01782,-0.05032 0.02593,-0.07575 0.113053,-0.327476 0.116713,-0.521909 0.116713,-0.521909 l 0.0061,-6.2e-5 0.0027,-0.262962 c 0.01471,-1.456803 -1.146327,-2.617771 -2.60321,-2.603066 z" />
    </g>
    <rect
       style="fill:#ffffff;fill-opacity:0.15;stroke-width:0.402912;stroke-linecap:round"
       id="tab-border-dark"
       width="0.26458332"
       height="6.8791685"
       x="52.652084"
       y="0"
       ry="2.9374649e-17" />
    <rect
       style="fill:#000000;fill-opacity:0.12;stroke-width:0.402912;stroke-linecap:round"
       id="tab-border-light"
       width="0.26458332"
       height="6.8791685"
       x="52.122917"
       y="0"
       ry="2.9374649e-17" />
  </g>
</svg>
